<svg width="19" height="15" viewBox="0 0 19 15" fill="none" xmlns="http://www.w3.org/2000/svg">
<path fill-rule="evenodd" clip-rule="evenodd" d="M0.513203 4.65129C0.5 5.19022 0.5 5.80205 0.5 6.5V8.5C0.5 11.3284 0.5 12.7426 1.37868 13.6213C2.25736 14.5 3.67157 14.5 6.5 14.5H12.5C15.3284 14.5 16.7426 14.5 17.6213 13.6213C18.5 12.7426 18.5 11.3284 18.5 8.5V6.5C18.5 5.80205 18.5 5.19022 18.4868 4.65129L10.4713 9.10436C9.86724 9.43994 9.13276 9.43994 8.52871 9.10436L0.513203 4.65129ZM0.742967 2.52971C0.825845 2.55052 0.907399 2.58237 0.985643 2.62584L9.5 7.35604L18.0144 2.62584C18.0926 2.58237 18.1742 2.55052 18.257 2.52971C18.1271 2.05619 17.9276 1.68491 17.6213 1.37868C16.7426 0.5 15.3284 0.5 12.5 0.5H6.5C3.67157 0.5 2.25736 0.5 1.37868 1.37868C1.07245 1.68491 0.872942 2.05619 0.742967 2.52971Z" fill="black"/>
</svg>
