<svg width="96" height="96" viewBox="0 0 96 96" fill="none" xmlns="http://www.w3.org/2000/svg">
<path d="M11.04 80.1001L11.32 79.7401C11.58 79.9601 11.86 80.1201 12.22 80.1201C12.56 80.1201 12.74 79.9601 12.74 79.7601C12.74 79.5401 12.54 79.4601 12.1 79.3401C11.52 79.2001 11.14 79.0401 11.14 78.5201C11.14 78.0401 11.56 77.6801 12.14 77.6801C12.58 77.6801 12.9 77.8201 13.18 78.0601L12.9 78.4401C12.66 78.2401 12.38 78.1201 12.1 78.1201C11.82 78.1201 11.64 78.2801 11.64 78.4801C11.64 78.7001 11.84 78.7801 12.28 78.8801C12.86 79.0001 13.24 79.2001 13.24 79.7001C13.24 80.2001 12.86 80.5401 12.2 80.5401C11.74 80.5601 11.34 80.4001 11.04 80.1001Z" fill="white"/>
<path d="M17.5401 80.02H16.2001L16.0001 80.52H15.4401L16.6001 77.76H17.1601L18.3201 80.52H17.7601L17.5401 80.02ZM17.3601 79.58L16.8801 78.42L16.4001 79.58H17.3601Z" fill="white"/>
<path d="M22.5001 80.0601V80.5001H20.5801V77.7401H21.0801V80.0601H22.5001Z" fill="white"/>
<path d="M24.7401 79.1201C24.7401 78.3401 25.4001 77.7001 26.2001 77.7001C26.9801 77.7001 27.6401 78.3601 27.6401 79.1201C27.6401 79.9001 26.9801 80.5601 26.2001 80.5601C25.4001 80.5601 24.7401 79.9001 24.7401 79.1201ZM27.1201 79.1201C27.1201 78.6001 26.7001 78.1601 26.1801 78.1601C25.6601 78.1601 25.2401 78.6001 25.2401 79.1201C25.2401 79.6601 25.6801 80.1001 26.1801 80.1001C26.6801 80.1001 27.1201 79.6601 27.1201 79.1201Z" fill="white"/>
<path d="M30.0601 77.7401H30.5601L32.0201 79.6801V77.7401H32.5201V80.5001H32.0201L30.5601 78.5601V80.5001H30.0601V77.7401Z" fill="white"/>
<path d="M38.16 77.7401H38.66L40.12 79.6801V77.7401H40.62V80.5001H40.12L38.66 78.5601V80.5001H38.16V77.7401Z" fill="white"/>
<path d="M45.0601 80.02H43.7201L43.5201 80.52H42.9601L44.1201 77.76H44.6801L45.8401 80.52H45.2801L45.0601 80.02ZM44.8801 79.58L44.4001 78.42L43.9201 79.58H44.8801Z" fill="white"/>
<path d="M48.6001 78.2001H47.7201V77.7401H50.0001V78.2001H49.1001V80.5001H48.6001V78.2001Z" fill="white"/>
<path d="M52.8601 77.7401H52.3601V80.5001H52.8601V77.7401Z" fill="white"/>
<path d="M55.26 79.1201C55.26 78.3401 55.92 77.7001 56.72 77.7001C57.5 77.7001 58.16 78.3601 58.16 79.1201C58.16 79.9001 57.5 80.5601 56.72 80.5601C55.92 80.5601 55.26 79.9001 55.26 79.1201ZM57.64 79.1201C57.64 78.6001 57.22 78.1601 56.7 78.1601C56.18 78.1601 55.76 78.6001 55.76 79.1201C55.76 79.6601 56.2 80.1001 56.7 80.1001C57.22 80.1001 57.64 79.6601 57.64 79.1201Z" fill="white"/>
<path d="M60.6001 77.7401H61.1001L62.5601 79.6801V77.7401H63.0601V80.5001H62.5601L61.1001 78.5601V80.5001H60.6001V77.7401Z" fill="white"/>
<path d="M67.48 80.02H66.14L65.94 80.52H65.38L66.54 77.76H67.1L68.26 80.52H67.7L67.48 80.02ZM67.3 79.58L66.82 78.42L66.34 79.58H67.3Z" fill="white"/>
<path d="M72.44 80.0601V80.5001H70.52V77.7401H71.02V80.0601H72.44Z" fill="white"/>
<path d="M77.88 77.7401H78.86C79.78 77.7401 80.42 78.3201 80.42 79.1201C80.42 79.9201 79.78 80.5001 78.86 80.5001H77.88V77.7401ZM78.92 80.0601C79.5 80.0601 79.92 79.6801 79.92 79.1401C79.92 78.6001 79.5 78.2201 78.92 78.2201H78.4V80.0801H78.92V80.0601Z" fill="white"/>
<path d="M83.3401 78.2001V78.8801H84.7801V79.3401H83.3401V80.0601H84.9201V80.5001H82.8401V77.7401H84.9201V78.2001H83.3401Z" fill="white"/>
<path d="M14.1001 86.1801V87.2201H10.7401V82.6001H11.8801V86.1801H14.1001Z" fill="white"/>
<path d="M16.5801 84.54C16.8001 84.36 16.9401 84.12 17.0001 83.9C16.6401 83.9 16.3401 83.58 16.3401 83.22C16.3401 82.84 16.6401 82.52 17.0201 82.52C17.4401 82.52 17.7401 82.9 17.7401 83.46C17.7401 83.9 17.4801 84.38 16.9601 84.84L16.5801 84.54Z" fill="white"/>
<path d="M23.2201 86.5401H21.4001L21.1401 87.2201H19.8601L21.6801 82.6201H22.9601L24.7801 87.2201H23.5001L23.2201 86.5401ZM22.8601 85.6401L22.3001 84.2201L21.7401 85.6401H22.8601Z" fill="white"/>
<path d="M29.0001 84.58H31.1001V86.5C30.6401 87 29.9201 87.3 29.2201 87.3C27.8601 87.3 26.7201 86.2 26.7201 84.92C26.7201 83.62 27.8601 82.54 29.2201 82.54C29.9401 82.54 30.6401 82.84 31.1001 83.34L30.2601 84.08C30.0201 83.78 29.6001 83.58 29.2201 83.58C28.5001 83.58 27.9001 84.2 27.9001 84.92C27.9001 85.66 28.5201 86.26 29.2201 86.26C29.4801 86.26 29.7601 86.18 30.0001 86.02V85.44H29.0001V84.58Z" fill="white"/>
<path d="M36.3201 87.2201L35.3001 85.7801H34.7401V87.2201H33.6001V82.6201H35.7401C36.7601 82.6201 37.4801 83.2601 37.4801 84.2001C37.4801 84.8801 37.1001 85.4001 36.5001 85.6401L37.6201 87.2201H36.3201ZM34.7401 84.7201H35.6201C36.0201 84.7201 36.3001 84.5001 36.3001 84.1801C36.3001 83.8601 36.0201 83.6401 35.6201 83.6401H34.7401V84.7201Z" fill="white"/>
<path d="M41.1201 82.6001H39.9801V87.2001H41.1201V82.6001Z" fill="white"/>
<path d="M43.5601 84.9C43.5601 83.6 44.7001 82.52 46.0401 82.52C46.7601 82.52 47.4201 82.82 47.8601 83.32L47.0201 84.06C46.7801 83.76 46.4201 83.56 46.0201 83.56C45.3201 83.56 44.7201 84.18 44.7201 84.9C44.7201 85.64 45.3201 86.24 46.0201 86.24C46.4201 86.24 46.7801 86.04 47.0201 85.74L47.8601 86.48C47.4001 86.96 46.7401 87.28 46.0401 87.28C44.7001 87.3 43.5601 86.2 43.5601 84.9Z" fill="white"/>
<path d="M50.14 85.2001V82.6001H51.28V85.1401C51.28 85.7801 51.7 86.2601 52.28 86.2601C52.86 86.2601 53.28 85.8001 53.28 85.1401V82.6001H54.42V85.2001C54.42 86.4401 53.54 87.3001 52.28 87.3001C51.04 87.3001 50.14 86.4201 50.14 85.2001Z" fill="white"/>
<path d="M60.3401 86.1801V87.2201H56.9801V82.6001H58.1201V86.1801H60.3401Z" fill="white"/>
<path d="M63.7401 83.6401H62.3201V82.6001H66.2801V83.6401H64.8801V87.2201H63.7401V83.6401Z" fill="white"/>
<path d="M68.6001 85.2001V82.6001H69.7401V85.1401C69.7401 85.7801 70.1601 86.2601 70.7401 86.2601C71.3201 86.2601 71.7401 85.8001 71.7401 85.1401V82.6001H72.8801V85.2001C72.8801 86.4401 72.0001 87.3001 70.7401 87.3001C69.4801 87.3001 68.6001 86.4201 68.6001 85.2001Z" fill="white"/>
<path d="M78.1601 87.2201L77.1401 85.7801H76.6001V87.2201H75.4601V82.6201H77.6001C78.6201 82.6201 79.3401 83.2601 79.3401 84.2001C79.3401 84.8801 78.9601 85.4001 78.3601 85.6401L79.4801 87.2201H78.1601ZM76.6001 84.7201H77.4801C77.8801 84.7201 78.1601 84.5001 78.1601 84.1801C78.1601 83.8601 77.8801 83.6401 77.4801 83.6401H76.6001V84.7201Z" fill="white"/>
<path d="M82.96 83.6401V84.3601H85.2V85.3801H82.96V86.1801H85.4401V87.2201H81.8V82.6001H85.4401V83.6401H82.96Z" fill="white"/>
<path d="M93.1401 93.1401H2.86006V2.86006H93.1201V93.1401H93.1401ZM95.4401 0.560059H0.560059V95.4401H95.4401V0.560059Z" fill="white"/>
<mask id="mask0_53_200" style="mask-type:luminance" maskUnits="userSpaceOnUse" x="36" y="48" width="20" height="6">
<path d="M45.38 49.2401C41.22 48.8801 39.8 48.6401 38.16 49.7201C36.52 50.8001 36.4 53.1401 36.4 53.1401C36.4 53.1401 37 51.1801 39.14 50.7201C40.2 50.5001 41.84 51.0801 43.74 51.6601C45.7 52.2601 47.92 52.8801 49.98 52.5801C54.02 52.0001 55.82 48.8201 55.82 48.8201C55.82 48.8201 49.56 49.6001 45.38 49.2401Z" fill="white"/>
</mask>
<g mask="url(#mask0_53_200)">
<path d="M57.1601 49.08L38.2801 42.92L35.0801 52.7L53.9601 58.86L57.1601 49.08Z" fill="url(#paint0_linear_53_200)"/>
</g>
<mask id="mask1_53_200" style="mask-type:luminance" maskUnits="userSpaceOnUse" x="36" y="48" width="20" height="6">
<path d="M45.38 49.2401C41.22 48.8801 39.8 48.6401 38.16 49.7201C36.52 50.8001 36.4 53.1401 36.4 53.1401C36.4 53.1401 37 51.1801 39.14 50.7201C40.2 50.5001 41.84 51.0801 43.74 51.6601C45.7 52.2601 47.92 52.8801 49.98 52.5801C54.02 52.0001 55.82 48.8201 55.82 48.8201C55.82 48.8201 49.56 49.6001 45.38 49.2401Z" fill="white"/>
</mask>
<g mask="url(#mask1_53_200)">
<g opacity="0.1">
<mask id="mask2_53_200" style="mask-type:luminance" maskUnits="userSpaceOnUse" x="36" y="41" width="22" height="13">
<path d="M57.16 41.76H36.36V53.62H57.16V41.76Z" fill="white"/>
</mask>
<g mask="url(#mask2_53_200)">
<path d="M36.4598 53.6205C36.4598 53.6205 36.6598 49.5605 41.3798 49.8205C46.0798 50.0805 50.4198 51.6605 54.5598 50.1405C58.7198 48.6205 56.6398 41.7405 56.6398 41.7405C56.6398 41.7405 43.4198 46.1005 39.4798 47.3205C35.5398 48.5605 36.4598 53.6205 36.4598 53.6205Z" fill="white"/>
</g>
</g>
</g>
<mask id="mask3_53_200" style="mask-type:luminance" maskUnits="userSpaceOnUse" x="36" y="41" width="22" height="13">
<path d="M39.4201 46.8401C35.4801 48.0601 36.4001 53.1201 36.4001 53.1201C36.4001 53.1201 36.6001 49.0601 41.3201 49.3201C46.0201 49.5801 50.3601 51.1601 54.5001 49.6401C58.6601 48.1201 56.5801 41.2401 56.5801 41.2401C56.5801 41.2401 43.3601 45.6201 39.4201 46.8401Z" fill="white"/>
</mask>
<g mask="url(#mask3_53_200)">
<path d="M60.9001 41.7001L36.3401 36.9001L33.2401 52.7001L57.8001 57.5001L60.9001 41.7001Z" fill="url(#paint1_linear_53_200)"/>
</g>
<mask id="mask4_53_200" style="mask-type:luminance" maskUnits="userSpaceOnUse" x="36" y="41" width="22" height="13">
<path d="M39.4201 46.8401C35.4801 48.0601 36.4001 53.1201 36.4001 53.1201C36.4001 53.1201 36.6001 49.0601 41.3201 49.3201C46.0201 49.5801 50.3601 51.1601 54.5001 49.6401C58.6601 48.1201 56.5801 41.2401 56.5801 41.2401C56.5801 41.2401 43.3601 45.6201 39.4201 46.8401Z" fill="white"/>
</mask>
<g mask="url(#mask4_53_200)">
<g opacity="0.1">
<mask id="mask5_53_200" style="mask-type:luminance" maskUnits="userSpaceOnUse" x="36" y="31" width="23" height="23">
<path d="M58.5802 31.7001H36.0402V53.5801H58.5802V31.7001Z" fill="white"/>
</mask>
<g mask="url(#mask5_53_200)">
<path d="M36.4602 53.5605C35.1202 49.2605 36.7802 44.6405 44.7002 41.6005C52.1002 38.7605 55.8802 34.7405 56.1802 31.6805C58.6002 33.8605 60.5602 40.8405 54.9002 44.0405C50.1402 46.7405 43.1002 45.7405 39.7202 47.8605C37.4002 49.3205 36.1402 50.4405 36.4602 53.5605Z" fill="white"/>
</g>
</g>
</g>
<mask id="mask6_53_200" style="mask-type:luminance" maskUnits="userSpaceOnUse" x="36" y="33" width="22" height="21">
<path d="M44.6 40.8801C37.24 42.8601 35.06 48.8201 36.4 53.1401C36.08 50.0001 37.34 48.8401 39.66 47.4001C43.2 45.2001 50.22 46.1201 54.84 43.5001C60.48 40.3001 56.82 34.3801 55.66 33.6201C54.94 35.6601 53.46 38.5201 44.6 40.8801Z" fill="white"/>
</mask>
<g mask="url(#mask6_53_200)">
<path d="M63.52 34.1002L35.7 29.6602L32.02 52.6602L59.86 57.1002L63.52 34.1002Z" fill="url(#paint2_linear_53_200)"/>
</g>
<path d="M49.0001 46.26L49.3001 47.18H50.2801L49.5001 47.76L49.8001 48.68L49.0001 48.1L48.2201 48.68L48.5201 47.76L47.7401 47.18H48.7001L49.0001 46.26Z" fill="#FFCD00"/>
<path d="M81.0001 54.64C81.0001 54.64 80.22 55.08 79.08 55.28C79.08 55.28 79.4601 57.94 77.7201 59.52C77.6601 59.58 77.7 59.7 77.78 59.7H79.16C79.2 59.7 79.26 59.66 79.26 59.62C79.28 59.52 79.3 59.34 79.36 59.1C79.36 59.06 79.5001 59.06 79.5001 59.02C79.5201 58.94 79.4201 58.84 79.4401 58.76C79.5001 58.58 79.5601 58.38 79.6401 58.18C80.0001 57.36 81.2601 55.14 81.0001 54.64Z" fill="white"/>
<path d="M69.8801 54.1801C69.8801 54.1801 69.4001 55.6601 69.2201 56.1601C69.2201 56.1601 70.0601 56.8401 70.4201 57.9201C70.7001 58.7201 70.7801 59.3801 70.8001 59.6601C70.8001 59.7201 70.8801 59.7601 70.9401 59.7201L71.6801 59.2001C71.7001 59.1801 71.7201 59.1401 71.7201 59.1001L71.5601 58.3801L71.6201 58.3401C71.6801 58.3001 71.7001 58.2201 71.6601 58.1601C71.6001 58.0801 71.5201 58.0201 71.4201 57.9801L71.3401 57.9601C71.3401 57.9601 70.8601 57.1601 70.5201 55.9201C70.2001 54.6801 70.0001 54.3201 69.8801 54.1801Z" fill="white"/>
<path d="M84.9401 52.78C83.4401 51.84 83.4601 51.22 83.3801 50.6C83.3001 50 83.2401 48.72 83.1601 47.72C83.0801 46.72 82.8001 45.44 81.5601 44.8C81.2201 44.62 80.7401 44.54 80.0601 44.74L79.5601 44.9L77.4601 45.2L76.7401 45.14C76.7401 45.14 68.5001 44.96 67.3201 44.96C66.1401 44.96 64.8001 45.52 64.2001 46.96C63.5801 48.44 61.5401 52.98 61.5401 52.98C61.5401 52.98 60.6001 52.78 60.0601 54.14C60.0601 54.14 59.1001 53.28 58.0801 53.86C58.0801 53.86 57.8601 54.46 58.5401 54.82C58.5401 54.82 58.4801 55.5 59.5801 55.2C59.5801 55.2 59.4201 55.52 59.6201 55.88C59.8201 56.24 60.0201 56.24 60.0201 56.64C60.0201 57.02 59.9401 57.76 59.9201 58C59.9001 58.22 59.4001 58.82 59.4201 59.18C59.4201 59.5 59.5201 59.8 59.7801 59.8H60.8001C61.0601 59.8 61.3401 59.56 61.6801 59.16C62.0201 58.76 62.9801 57.76 63.1801 57.2C63.3801 56.62 63.5401 55.5 63.5401 55.5C63.5401 55.5 63.9201 55.96 64.4001 55.82C64.8801 55.68 66.0401 55.04 66.0401 55.04C66.0401 55.04 66.1401 55.64 66.9801 55.84V54.08C66.9801 54.04 67.0201 54 67.0601 54C67.1001 54 67.1401 54.02 67.1401 54.06C67.1801 54.4 67.2401 55.88 67.2401 55.88L67.4001 57.2L67.0801 59.06L66.7401 59.68C66.7201 59.72 66.7401 59.8 66.8001 59.8H67.7201C67.7401 59.8 67.7801 59.78 67.7801 59.76L68.0801 59.12H68.1401C68.1801 59.12 68.2201 59.08 68.2001 59.04L68.1401 58.42L68.3401 57.16L68.8201 56.18L70.0601 52.68C70.0801 52.64 70.1201 52.62 70.1601 52.64C70.2001 52.64 70.2201 52.68 70.2201 52.72L70.0001 53.86C70.8201 53.9 71.5801 54.5 73.3201 54.68C75.3001 54.9 76.9801 54.14 76.9801 54.14L77.5401 54.42V54.98C77.5401 55.22 77.9401 55.26 77.9401 54.96C77.9401 54.66 77.9401 54.56 77.9401 54.56L78.1001 54.62V55C78.1001 55.2 78.4601 55.22 78.4601 54.98C78.4601 54.76 78.4601 54.7 78.4601 54.7C78.4601 54.7 79.8801 54.84 81.0401 53.96C81.0801 53.94 79.2201 53.34 78.7401 51.56C78.7401 51.52 78.7401 51.5 78.7801 51.48C78.8201 51.46 78.8601 51.48 78.8801 51.52C79.3401 52.8 80.3801 53.46 81.3201 53.76C81.3201 53.76 82.9601 56.28 82.8201 58.36C82.8001 58.62 82.6601 59.34 82.6001 59.64C82.5801 59.7 82.6401 59.78 82.7001 59.78H84.1201C84.2001 59.78 84.2401 59.72 84.2201 59.64L84.0401 58.92C84.0401 58.92 84.0801 58.92 84.1001 58.88C84.1201 58.82 84.0401 58.66 84.0401 58.66L83.9201 58.42C83.9201 58.42 83.4601 56.66 83.8001 54.48C83.8201 54.4 83.8001 54.32 83.7601 54.26C83.4801 53.84 82.3801 51.9 82.5401 46.2C82.5401 46.2 82.8001 46.84 82.9001 48.42C83.0001 50 82.9601 51.06 83.3801 51.72C83.8001 52.38 84.5801 52.88 84.5801 52.88C84.5801 52.88 84.3601 53.44 84.6401 54C84.8401 54.42 84.7401 54.8 84.6001 55.02C84.5801 55.06 84.6201 55.08 84.6401 55.06C84.7801 54.94 84.9801 54.74 85.0401 54.44C85.0401 54.44 85.3201 54.88 85.2201 55.52C85.2201 55.56 85.2601 55.56 85.2801 55.54C85.3801 55.34 85.5001 54.96 85.5001 54.42C85.5001 54.42 85.6401 54.5 85.6801 54.8C85.6801 54.84 85.7601 54.86 85.7801 54.8C85.9201 54.48 86.1001 53.5 84.9401 52.78ZM61.9601 54.5L61.5601 55.3L61.2801 56.48L60.5801 57.98C60.5601 58.04 60.5001 58.06 60.4401 58.06C60.3601 58.06 60.2801 58 60.3001 57.9L60.3401 56.44L60.1001 55.44C60.0601 55.3 60.0601 55.16 60.1001 55.02L60.2601 54.38C60.3001 54.2 60.4201 54.06 60.5801 53.98L61.1201 53.7C61.1601 53.68 61.2201 53.66 61.2601 53.66H61.4401C61.5401 53.66 61.6201 53.7 61.6801 53.78L61.8801 54.04C62.0001 54.18 62.0201 54.36 61.9601 54.5ZM69.8401 48.9C69.7801 48.7 69.7201 48.5 69.4601 48.3C69.1401 48.08 68.8001 47.88 68.2201 47.6C67.6601 47.32 67.1601 47.7 66.6601 47.48C66.2001 47.28 66.2601 46.92 66.0201 46.76C65.7001 46.56 65.2601 46.72 65.1401 47C65.0201 47.28 64.8601 47.32 64.7601 47.26C64.6601 47.2 64.6401 47.04 64.7001 46.9C65.0001 46.2 65.7201 45.22 67.5601 45.3C69.4201 45.36 70.0201 45.38 70.0201 45.38C70.0201 45.38 69.9601 45.8 70.2201 46.12C70.4601 46.44 70.5001 46.84 70.2401 47.28C69.9801 47.72 70.1201 48.04 70.3201 48.32C70.4201 48.46 70.4801 48.6 70.5001 48.74C70.5201 48.88 70.4401 49.06 70.3001 49.1C70.1401 49.14 69.9001 49.14 69.8401 48.9ZM76.6601 53.96C76.2201 54.12 75.3001 54.38 74.2401 54.44C73.2001 54.48 72.3601 54.24 71.9401 54.1C71.8401 54.08 71.7601 54.04 71.6801 54C71.6401 53.98 71.6201 53.96 71.5801 53.94C71.4201 53.82 71.3401 53.66 71.2001 53.54C71.0601 53.44 70.9001 53.36 70.8001 53.24C70.5801 52.96 70.6601 52.6 70.6601 52.26C70.6601 52.08 70.6201 51.92 70.5401 51.74C70.4001 51.38 70.4201 51.14 70.4201 50.76C70.4201 50.46 70.2001 50.08 70.3801 49.8C70.4801 49.64 70.6401 49.58 70.8001 49.72C70.9401 49.84 70.9201 50.02 70.9201 50.2C70.9201 50.44 71.0601 50.38 71.1401 50.22C71.2001 50.1 71.1801 49.96 71.2401 49.84C71.3201 49.7 71.4201 49.56 71.5801 49.46C71.7401 49.36 71.9201 49.34 72.1001 49.3C72.1801 49.28 72.2601 49.26 72.3401 49.22C72.4201 49.18 72.4801 49.12 72.5601 49.08C72.7001 49 72.9001 48.98 73.0201 49.12C73.1401 49.24 73.0801 49.44 72.9801 49.56C72.8601 49.66 72.7201 49.72 72.5801 49.76C72.4401 49.82 72.3401 49.92 72.2401 50.06C72.1401 50.22 72.0601 50.4 72.0401 50.6C72.0201 50.78 72.1201 50.92 72.2201 51.06C72.3401 51.2 72.4601 51.34 72.5601 51.5C72.6601 51.66 72.7401 51.84 72.8001 52.02C72.8401 52.16 72.8801 52.32 72.9401 52.46C72.9801 52.6 73.0401 52.74 73.1401 52.86C73.2401 52.98 73.3801 53.04 73.5201 53.06C73.6801 53.1 73.8601 53.1 74.0201 53.14C74.1601 53.16 74.3001 53.22 74.4201 53.3C74.4401 53.3 74.4401 53.3 74.4601 53.3C74.5601 53.4 74.7001 53.46 74.8401 53.48C74.9001 53.48 74.9801 53.5 75.0401 53.48C75.1201 53.46 75.2001 53.42 75.2801 53.38C75.5601 53.24 75.8401 53.24 76.1401 53.3C76.4001 53.36 76.6401 53.46 76.9001 53.52C77.1401 53.6 76.9401 53.86 76.6601 53.96ZM81.2201 50.36C80.9001 50.8 80.3201 50.98 79.9401 50.88C79.3601 50.72 79.2201 50.18 79.5201 49.82C79.9201 49.36 79.3001 48.76 78.8801 49.12C78.3201 49.6 77.1001 49.06 77.3601 47.52C77.6201 45.98 76.2201 46.08 75.8401 46.08C75.4601 46.08 75.4401 45.52 75.8401 45.52C76.2201 45.52 76.4401 45.52 76.4401 45.52L77.3601 45.58L79.5201 45.26C79.5201 45.26 80.7601 44.78 81.1801 45.02C81.6001 45.26 81.1001 45.68 80.9201 45.86C80.7401 46.04 80.2001 46.4 79.9401 46.6C79.6801 46.8 80.0401 47.34 80.4001 47.08C80.7601 46.82 81.0401 47.24 80.7801 47.48C80.5201 47.74 80.2201 47.96 80.0201 48.24C79.7801 48.56 80.0801 49 80.5401 48.84C81.1401 48.66 81.9001 49.46 81.2201 50.36Z" fill="white"/>
<path d="M56.4001 64.2201C56.5201 64.2801 56.6601 64.2801 56.8001 64.2801C56.7201 64.4401 56.7401 64.6401 56.9601 64.7601C57.1801 64.8801 57.3201 64.8001 57.4001 64.6401C57.5601 64.9001 57.3601 65.3001 57.2601 65.5401C57.0601 66.0201 56.9001 66.4601 56.8001 66.9601C56.5201 68.3801 56.8401 70.0001 58.3001 70.7601C58.9001 71.0601 59.5601 71.2601 60.2001 71.3401C60.3201 71.5401 60.4801 71.8001 60.4801 72.0001C60.4801 72.1401 60.4201 72.2601 60.3201 72.3401C60.2201 72.4401 60.1001 72.5201 59.9801 72.5801C60.4001 72.6001 60.6801 72.7001 60.8001 72.3801C60.8201 72.3401 60.8201 72.2801 60.8401 72.2001C60.8801 71.9601 60.8801 71.8001 61.0001 71.5801C61.0401 71.5001 61.1001 71.4201 61.1801 71.3401C61.9801 71.2601 62.7601 70.9401 63.3801 70.3601C63.9201 69.8401 64.2801 69.2001 64.4401 68.5001C64.4601 68.3801 64.4801 67.7001 64.3001 67.7001C64.6401 67.3801 65.0801 66.9401 64.3001 67.0001C64.4601 66.9001 65.1401 66.4601 65.1801 66.2401C65.2201 65.8601 64.6201 66.0601 64.4001 66.1001C64.7001 65.9201 65.8201 65.8401 65.5401 65.4001C65.2601 64.9601 64.4601 65.0401 64.0001 65.2001C64.3001 65.0601 64.5601 64.8801 64.8601 64.7801C65.1401 64.6801 65.4601 64.6601 65.7001 64.5001C65.4201 64.0601 64.0801 64.3401 63.6601 64.4601C62.9601 64.6401 62.6001 65.1001 62.1601 65.5201C61.4801 65.9601 60.5401 66.4401 59.7801 66.0601C58.8801 65.6201 59.2001 64.3601 58.8401 63.6401C58.7601 63.4601 58.6201 63.3201 58.4801 63.2201C58.3401 62.7201 58.0201 62.2201 57.4801 62.1801C57.5801 62.3401 57.7601 62.4401 57.8601 62.6201C57.6401 62.5201 57.0201 62.2201 56.8601 62.5201C56.9801 62.6001 57.1201 62.6801 57.2801 62.7401C57.1001 62.6801 56.8401 62.6201 56.6601 62.7201C56.4401 62.8401 56.4601 63.0201 56.7401 63.0201C56.5001 63.0001 56.2601 63.3001 56.4201 63.4801C56.5001 63.5601 56.6401 63.6201 56.7801 63.6201C56.8801 63.3801 57.3201 63.1001 57.5201 63.1001C57.2201 63.2201 56.9001 63.5001 56.8001 63.7201C56.8001 63.7601 56.7801 63.7801 56.7801 63.8201C56.6201 63.9201 56.4401 64.0401 56.4001 64.2201ZM57.9801 66.7001C58.0001 66.7201 58.0201 66.7401 58.0601 66.7801C58.0001 66.8801 57.8001 67.1001 57.7801 67.2001C57.7201 67.4201 57.6801 67.6401 57.7201 67.8801C57.8001 68.3601 58.3001 68.7001 58.7201 69.0001C59.1401 69.2801 59.6001 69.4601 60.1601 69.4401C60.8601 69.4201 61.5201 69.1401 62.1001 68.8401C62.4201 68.6801 62.6201 68.5201 62.8601 68.2801C62.9601 68.1801 63.0401 68.0601 63.1201 67.9601C63.1401 67.9201 63.2801 67.7201 63.2801 67.6601C63.2801 67.5401 63.1201 67.6001 63.0201 67.6201C62.9001 67.6401 62.7801 67.6401 62.6601 67.6001C62.7601 67.3801 63.2001 67.3001 63.2601 67.0201C63.3201 66.7201 62.7801 67.0401 62.6401 67.0401C62.7201 66.8201 63.0801 66.6801 63.1201 66.4601C62.9201 66.5401 62.7601 66.7201 62.5601 66.8201C62.6401 66.7001 62.8001 66.6401 62.9201 66.5401C63.0601 66.4201 63.1401 66.3001 63.2401 66.1601C63.5201 66.2801 62.9801 66.7601 62.9201 66.8801C63.1201 66.9001 63.5401 66.7001 63.4201 67.0001C63.3201 67.2201 63.1001 67.3601 62.9201 67.5401C62.9401 67.5401 62.9801 67.5401 63.0001 67.5201C63.1801 67.5001 63.3801 67.3601 63.3801 67.5601C63.3801 67.7401 63.2401 67.9801 63.1401 68.1401C62.6601 68.8801 61.4601 69.4001 60.5201 69.5001C59.3001 69.6401 57.8401 68.9001 57.5401 67.8401C57.4201 67.4001 57.6801 67.0201 57.9801 66.7001Z" fill="white"/>
<path d="M85.8401 64.5401C85.4201 64.4601 84.9601 64.5001 84.5201 64.4601C84.0401 64.4201 83.6201 64.2601 83.1801 64.1601C83.0201 64.1001 82.8601 64.0801 82.7001 64.0401C82.3801 63.9401 80.2801 63.3401 79.9201 63.1601C79.2201 62.7601 78.4201 62.5601 77.6201 62.4401C76.7801 62.2801 75.9201 62.1801 75.0601 62.1401C74.1601 62.1001 73.2601 62.1201 72.3601 62.1601C71.5401 62.2001 70.7401 62.3001 69.9601 62.5401C69.3201 62.7401 68.8001 63.1401 68.5001 63.6601C68.3201 63.8401 68.1401 64.0601 67.9401 64.2001C67.8401 64.2601 67.7201 64.2801 67.6001 64.2401C67.5801 64.2201 67.5401 64.2201 67.5201 64.2001L67.5401 64.1801C67.6801 63.9601 67.6801 63.5801 67.4601 63.4001C67.3001 63.2401 67.0401 63.2201 66.9001 63.4401C66.7201 63.7401 66.8801 64.0801 67.1601 64.2801C67.1001 64.3201 67.0601 64.3601 67.0001 64.4001C66.7201 64.5601 66.4801 64.3601 66.2801 64.1801C66.2401 64.1401 66.1801 64.1801 66.2201 64.2401C66.3401 64.4401 66.5201 64.7001 66.7801 64.7001C67.0201 64.6801 67.2201 64.5801 67.3801 64.4201C67.5201 64.4801 67.6601 64.5201 67.7801 64.5201C67.9001 64.5201 68.0001 64.4801 68.0801 64.4201C68.0201 64.5801 68.0001 64.7601 67.9601 64.9001C67.8201 65.5201 67.8001 66.1401 67.9601 66.7601C68.1201 67.3001 68.5001 67.7601 68.8401 68.1801C68.9201 68.2801 69.0201 68.4001 69.1401 68.5001C69.1601 68.5801 69.2001 68.6601 69.2201 68.7401C69.3201 69.0201 69.3801 69.3601 69.3401 69.6601C69.3001 69.8801 69.1401 70.0601 69.0601 70.2601C69.0001 70.4401 68.9801 70.6201 69.0201 70.8201C69.0801 71.1801 69.1001 71.4601 69.0201 71.8201C68.9601 72.0801 69.0201 72.3401 69.2801 72.4401C69.4601 72.5201 70.0401 72.7001 70.1801 72.4601C70.2601 72.3401 70.1801 72.2201 70.1201 72.1001C70.0401 71.8801 70.0401 71.4201 70.1401 71.1601C70.1401 71.1401 70.1401 71.1401 70.1601 71.1201C70.2001 70.8401 70.2601 70.4201 70.3201 70.2601C70.4801 69.8401 70.5001 69.3201 70.7801 68.9601C71.0801 68.6001 71.7401 68.5001 72.1801 68.3601C73.5401 67.9601 74.3801 67.5001 74.9201 66.3601C74.6401 67.9001 72.7801 68.6601 71.4001 68.8401C70.8801 68.9001 70.8801 69.2601 70.7201 69.7401C70.5801 70.1801 70.4001 70.6801 70.3401 71.1201C70.5001 71.4001 70.5601 71.7601 70.7001 72.0401C70.8401 72.3201 70.9801 72.4201 71.2601 72.5001C71.4801 72.5601 71.7401 72.6401 71.9801 72.5801C72.1201 72.5401 72.1401 72.3801 72.0401 72.2801C71.8001 72.0201 71.5601 71.8601 71.4001 71.5201C71.1201 70.9201 71.2401 70.1201 71.4201 69.5201L71.4601 69.4001C71.7601 69.5401 72.0801 69.6801 72.3801 69.8001C73.3001 70.1801 74.2601 70.3401 75.2401 70.3001C76.0401 70.2601 76.8601 70.1001 77.6401 69.8801C77.6201 70.0601 77.5801 70.2401 77.5601 70.4201C77.5401 70.6001 77.6001 70.7601 77.6801 70.9201C77.8201 71.1801 77.9601 71.4401 78.0601 71.7201C78.1801 72.0201 78.2801 72.4001 78.6001 72.5401C78.7601 72.6001 78.9801 72.5601 79.1601 72.5801C79.3201 72.6001 79.4801 72.6201 79.6401 72.5601H79.6601C79.5401 72.3601 79.4601 72.0601 79.3801 71.9201C79.1801 71.5201 78.9801 71.1201 78.8601 70.7001C78.7201 70.2401 78.7601 70.0801 79.0001 69.6801C79.1001 69.5201 79.2001 69.3401 79.3001 69.1401L79.1601 69.6001C78.9001 70.2001 78.8801 70.0601 79.0401 70.7401C79.1601 71.3201 79.4601 72.1601 79.8001 72.5401C80.0801 72.6801 80.4201 72.6001 80.4401 72.3401C80.4401 72.2001 80.3601 72.0801 80.3001 71.9601C80.1001 71.6401 79.9001 71.3401 79.7601 71.0001C79.6201 70.6801 79.5201 70.3401 79.5201 69.9801C79.5201 69.8401 79.5601 69.7001 79.6001 69.5601C79.7401 69.4601 79.8801 69.3801 80.0401 69.3001C80.2401 69.5401 80.4601 69.7601 80.7601 69.8601C81.1401 70.0001 81.4801 69.9601 81.8801 69.9201C82.3601 69.8801 83.3601 70.3401 84.6401 70.3801C84.8401 70.3801 85.1001 70.2601 85.2801 70.3601C85.4401 70.4601 85.6001 70.2601 85.6401 70.1201C85.7801 69.7401 85.9401 69.4401 86.1801 69.1201C86.2401 69.0401 86.1401 68.9401 86.0601 68.9601C85.8201 69.0401 85.5801 69.1801 85.3201 69.1401C84.9401 69.0801 85.1201 68.5801 85.1801 68.3601C85.3201 67.9201 85.7201 68.0401 85.7001 67.5601C85.7001 67.1201 85.5801 66.7201 85.3801 66.3401C85.5201 66.3401 85.6601 66.3201 85.8201 66.2801C86.1401 66.2001 86.6201 66.0001 86.9201 66.2401C87.0001 66.3001 87.1001 66.2601 87.1001 66.1601C87.2201 65.3801 86.5601 64.7001 85.8401 64.5401ZM67.3201 64.0601C67.1001 63.9601 67.1001 63.8001 67.3401 63.6001C67.4401 63.7601 67.4001 63.9201 67.3201 64.0601ZM80.6601 67.9001C80.5001 67.2801 80.5801 66.8601 80.9801 66.2801L80.6601 67.9001ZM84.6201 65.2401L85.3201 65.9601C84.8601 65.9801 84.7001 65.6201 84.6201 65.2401Z" fill="white"/>
<path d="M81.68 72.5401C81.92 72.4601 82.32 72.0401 82.32 72.0401C82.32 72.0401 80.46 72.1801 80.02 72.4001C80.2 72.3001 80.46 72.2001 80.54 72.0001C79.92 71.9601 79.24 72.3401 78.68 72.5401C78.7 72.5201 78.74 72.5201 78.76 72.5001C78.22 72.6601 77.6 72.4401 77.06 72.6801C77.26 72.5801 77.56 72.5201 77.66 72.3201C77.34 72.3001 77.02 72.3001 76.7 72.3601C76.44 72.4001 76.14 72.5401 75.88 72.5401C76.04 72.3401 76.48 72.1801 76.48 71.9001C76.02 71.9601 75.68 72.3201 75.26 72.5001C75.46 72.1401 75.86 71.9801 76.22 71.8201C75.68 71.2601 74.26 71.9801 73.56 72.4001C73.52 72.4001 73.48 72.3801 73.44 72.3801C73.64 72.1201 73.96 71.9601 74.18 71.7601C73.72 71.8201 73.3 72.0001 72.92 72.2201C73.28 71.6001 71.68 72.3801 71.64 72.3601C71.46 72.2601 71.74 71.9201 71.34 71.9601C71.04 72.0001 71 72.3401 71.02 72.5801C70.62 72.4201 69.6 71.7001 69.22 72.2201C69.38 72.4001 69.66 72.4801 69.84 72.6401C69.44 72.7001 69.04 72.5401 68.62 72.5801C68.66 72.8401 69.18 72.9201 69.4 72.9401C69.08 73.1801 68.44 73.1601 68.04 73.2201C69.18 73.4401 72.8 73.4001 73.5 73.4001C74.4 73.4001 76.42 73.5401 77.32 73.5001C78.28 73.4601 81.88 73.3001 82.28 73.2801C82.56 73.2601 83.68 73.3601 84.04 73.2801C83.84 72.9801 82.06 72.5401 81.68 72.5401Z" fill="white"/>
<path d="M58.8401 72.5401C58.6001 72.4601 58.2001 72.0401 58.2001 72.0401C58.2001 72.0401 60.0601 72.1801 60.5001 72.4001C60.3201 72.3001 60.0601 72.2001 59.9801 72.0001C60.6001 71.9601 61.2801 72.3401 61.8401 72.5401C61.8201 72.5201 61.7801 72.5201 61.7601 72.5001C62.3001 72.6601 62.9201 72.4401 63.4601 72.6801C63.2601 72.5801 62.9601 72.5201 62.8601 72.3201C63.1801 72.3001 63.5001 72.3001 63.8201 72.3601C64.0801 72.4001 64.3801 72.5401 64.6401 72.5401C64.4801 72.3401 64.0401 72.1801 64.0401 71.9001C64.5001 71.9601 64.8401 72.3201 65.2601 72.5001C65.0601 72.1401 64.6601 71.9801 64.3001 71.8201C64.8401 71.2601 66.2601 71.9801 66.9601 72.4001C67.0001 72.4001 67.0401 72.3801 67.0801 72.3801C66.8801 72.1201 66.5601 71.9601 66.3401 71.7601C66.8001 71.8201 67.2201 72.0001 67.6001 72.2201C67.2401 71.6001 68.8401 72.3801 68.8801 72.3601C69.0601 72.2601 68.7801 71.9201 69.1801 71.9601C69.4801 72.0001 69.5201 72.3401 69.5001 72.5801C69.9001 72.4201 70.9201 71.7001 71.3001 72.2201C71.1401 72.4001 70.8601 72.4801 70.6801 72.6401C71.0801 72.7001 71.4801 72.5401 71.9001 72.5801C71.8601 72.8401 71.3401 72.9201 71.1201 72.9401C71.4401 73.1801 72.0801 73.1601 72.4801 73.2201C71.3401 73.4401 67.7201 73.4001 67.0201 73.4001C66.1201 73.4001 64.1001 73.5401 63.2001 73.5001C62.2401 73.4601 58.6401 73.3001 58.2401 73.2801C57.9601 73.2601 56.8401 73.3601 56.4801 73.2801C56.6801 72.9801 58.4601 72.5401 58.8401 72.5401Z" fill="white"/>
<path d="M76.1201 21.14C75.9801 21.04 75.6601 21.12 75.6601 21.12C74.4801 22.64 73.1801 24.82 73.1801 24.82C71.8601 26.9 69.5201 27.78 69.5201 27.78C67.1201 28.82 64.2601 27.8 64.2601 27.8C63.7601 27.46 62.9601 26.72 62.9601 26.72C62.6801 26.52 62.4801 27.42 62.4801 27.42L63.0201 28.44C64.5001 30.54 66.7401 31.22 66.7401 31.22C71.0001 32.62 73.4001 29.12 73.4001 29.12C75.2401 26.62 74.8601 23.98 74.8601 23.98C75.7801 22.84 76.3601 22.48 76.3601 22.48C76.5201 22.24 76.1201 21.14 76.1201 21.14ZM70.8801 27.34C71.9801 26.72 73.6001 24.8 73.6001 24.8C73.6001 25.46 73.1401 26.32 73.1401 26.32C71.0401 29.76 68.0401 29.26 68.0401 29.26C67.7001 29.06 69.7801 27.96 70.8801 27.34ZM70.8401 30.72C70.8401 30.72 67.0201 32.56 63.7801 28.8C63.7801 28.8 67.9801 30.86 71.0801 28.94C71.0801 28.94 72.6401 28.16 74.2201 25.58C74.2201 25.6 73.8201 29.28 70.8401 30.72Z" fill="white"/>
<path d="M52.2601 12.7C52.0201 12.7 51.8001 12.64 51.5601 12.64C51.6601 12.34 52.2001 11.9 52.5401 11.86C52.1201 11.9 51.7201 12.16 51.3001 12.16C51.2401 12.14 51.4601 11.74 51.4801 11.74C51.2801 11.78 51.0601 11.94 50.9001 12.06C50.9601 11.84 51.0801 11.48 51.0601 11.26C50.8801 12.08 50.3001 11.84 49.6801 11.7C49.3201 11.62 48.9601 11.58 48.6001 11.56C47.9401 11.52 47.3801 11.52 46.7801 11.88C45.9201 12.38 45.4401 13.26 45.2201 14.2C45.0001 15.2 44.9801 16.8 43.9001 17.32C43.5801 17.48 43.2601 17.62 42.9801 17.84C43.2001 17.76 43.5201 17.64 43.7601 17.66C43.5201 17.94 43.1801 18.32 42.8401 18.46C43.0201 18.38 44.0601 18.06 44.1001 17.9C43.9801 18.4 43.8001 19 43.5001 19.4C43.8401 18.96 44.1801 18.54 44.5401 18.12C44.5201 18.42 44.5201 18.7 44.5201 19C44.5401 18.6 44.9801 18.06 45.3201 17.88C45.8801 17.6 46.5401 17.88 47.1001 18.02C47.9401 18.22 48.8601 18.28 49.7001 18.08C50.5001 17.9 50.9801 17.48 51.4601 16.84C52.1401 15.94 52.1401 14.98 51.9401 13.94C51.9001 13.7 51.7801 13.5 51.7601 13.24C51.7001 12.9 51.8801 12.7 52.2601 12.7ZM49.8401 17.68C49.8401 17.68 48.5801 18.4 46.3201 17.68C46.3201 17.68 47.1801 17.6 47.7601 17.38C47.7601 17.38 46.5201 17.56 46.0401 17.46C46.0401 17.46 47.5201 17.08 48.6601 15.42C48.6601 15.42 47.0401 16.98 45.3601 16.98C45.3601 16.98 45.0401 13.58 48.6601 12.26C48.6601 12.26 46.5601 12.32 45.5201 14.36C45.5201 14.36 46.5001 10.38 50.7601 12.44C50.7601 12.44 48.1001 11.88 46.1001 15.5C46.1001 15.5 48.6001 12.04 50.9601 12.98C50.9601 12.98 51.2801 15.68 48.2801 16.96C48.2801 16.96 50.9001 16.54 51.3401 13.58C51.3201 13.6 52.5201 16.14 49.8401 17.68Z" fill="white"/>
<path d="M70 13.28L69.98 12.94L69.7 12.54L69.38 11.96L68.8 11.72L68.6 11.56L67.48 11.4V11.28L66.44 11.06L65.1 11L64.68 11.12L64.66 10.86L64.04 10.78L62.4 10.88L61.64 11.08L61.48 10.94L57.78 11.78L57.42 11.92L55.76 12.72V12.86L56.7 12.94L57.9 12.86L59.56 12.94L62.02 13.44L62.22 13.62L62.94 13.88L62.92 13.64L63.58 14.22L64.12 14.18L64.24 14.04L64.56 14.32L66.16 14.86L66.42 14.78L68 15.2L68.68 15.16L68.92 15.06L69.26 14.82L69.64 14.46L70 13.28ZM68.62 14.82L68.6 14.5L68.16 14.7L67.7 14.56L66.52 14.14L66.66 13.86L66.26 14.14L65.92 14.38L64.94 14.12L64.92 13.9L64.6 13.92L64.24 13.76L64.06 13.16L64.08 13.62L63.6 13.44L63.62 13.68L63.4 13.7L62.42 13.02L62.44 13.38L61.98 13.16L60.14 12.78L60.12 12.46L59.86 12.6H59.48L58.26 12.68H56.18L56.82 12.48L57.88 12.26L60.18 12.16L60.68 11.8L61.34 11.58L61.92 11.54L61.8 11.88L61.82 12.36L62.06 12.56L62.6 11.94L62.48 12.32L62.88 12.3L63.74 11.74L64.5 11.36L63.78 12.18L63.6 12.56L63.62 12.94L63.9 12.62L64.08 12.78L64.62 12.48L64.94 12.12L64.76 12.64L65.68 12.06L66.14 12.04L65.86 12.22L65.02 13.16V13.44L65.36 13.2L65.76 13.18L66.18 12.98L66.36 13.14L66.72 12.74L67.08 12.72L67.48 12.48L68.08 12.26L67.64 12.76L67.24 13.08L66.88 13.5L67.48 13.34L67.8 13.32L68.2 13.56L68.6 13.54L68.82 13.74L68.7 14.22L69.26 13.8L69.48 14L69.14 14.52L68.62 14.82Z" fill="white"/>
<path d="M70.3 13.18L71.4401 12.98L74.06 12.74L75.6401 12.66V12.92L73.6201 13.3L70.6 13.4L72.58 13.58L74.8201 14.16V14.38L72.9401 14.22L74.28 14.76L75.4201 15.26L75.2401 15.46L72.0401 14.62L70.6 14.1L71.96 14.84L74.0201 15.62L72.96 15.48L74 16.14L74.3 16.34L73.16 15.96L71.7201 15.3L72.5201 16L72.5401 16.18L71.26 15.54L69.8 14.6L70.1 14.04L70.26 13.6L70.3 13.18Z" fill="white"/>
<path d="M80.96 21.1601C80.32 20.9401 80.1 20.3601 79.98 19.7401C79.84 19.0601 79.56 18.4201 79.28 17.7801C79.04 17.2401 78.7 16.6801 78.78 16.0801C78.84 15.6401 79.04 15.1201 79.46 14.8801C79.78 14.7001 80.4 14.4001 80.72 14.6801C80.28 14.2601 79.62 14.3001 79.1 14.6001C78.58 14.9001 78.16 15.4401 78.18 16.0601C78.22 17.1801 79.22 18.1801 79.3 19.3401C79.36 20.1801 80.1 21.0601 80.96 21.1601Z" fill="white"/>
<path d="M81.9801 15.1801C82.5801 15.4601 82.7201 16.2001 82.7401 16.8001C82.7601 17.3201 82.7201 17.8201 82.7601 18.3401C82.8201 18.9601 83.1601 19.5401 83.0801 20.1801C83.0401 20.5201 82.8801 20.8201 82.5801 20.9801C82.1801 21.2001 81.7201 21.1401 81.4001 20.8201C81.0201 20.4401 81.0201 19.9001 81.0401 19.4001C81.0601 18.9201 80.9001 18.4001 80.7201 17.9601C80.9401 18.4801 80.9201 19.1601 80.9001 19.7201C80.8801 20.2801 80.8801 20.9401 81.4001 21.2801C81.6601 21.4401 82.0001 21.4601 82.2801 21.4001C82.7601 21.3001 83.2401 21.0201 83.4201 20.5401C83.5401 20.2601 83.4601 19.9801 83.4201 19.7001C83.3401 19.1001 83.1801 18.5001 83.1001 17.9001C83.0401 17.3601 83.2001 16.8001 83.1201 16.2601C83.0401 15.6601 82.7201 14.9801 82.2001 14.6601C81.6801 14.3401 81.0601 14.6001 80.6401 14.9401C80.3001 15.2201 80.1801 15.6401 80.2001 16.0601C80.2001 16.5601 80.3801 17.1801 80.5801 17.6201C80.3201 17.0601 80.3201 16.3001 80.6001 15.7401C80.8401 15.2801 81.4601 14.9401 81.9801 15.1801Z" fill="white"/>
<path d="M83.4 13.56C84.28 13.52 84.66 14.26 84.7 15.04C84.74 15.6 84.68 16.18 84.58 16.74C84.48 17.34 84.64 17.96 84.7 18.56C84.74 18.98 84.8 19.46 84.66 19.86C84.6 20.02 84.54 20.18 84.42 20.3C84.34 20.4 84.24 20.48 84.12 20.54C84.06 20.58 83.96 20.58 83.88 20.58C83.78 20.58 83.7 20.56 83.62 20.56C84.2 20.62 84.4 20 84.44 19.54C84.5 18.96 84.3 18.38 84.22 17.82C84.14 17.32 84.1 16.9 84.18 16.4C84.28 15.82 84.32 15.14 84.06 14.62C83.88 14.26 83.52 14.04 83.12 14.04C82.72 14.04 82.44 14.22 82.14 14.46C82.32 13.9 82.86 13.58 83.4 13.56Z" fill="white"/>
<path d="M80.1201 13.84C80.1201 13.84 80.5401 14.96 81.3601 14.44C81.3601 14.44 81.9401 14.64 82.3401 13.96C82.3401 13.96 82.2001 14.14 81.9801 14.06C81.9801 14.06 82.3201 13.96 82.5201 13.38C82.5201 13.38 82.2001 13.76 81.9201 13.82C81.9201 13.82 82.0001 13.68 81.9801 13.56C81.9801 13.56 81.8001 13.86 81.5801 13.86C81.5801 13.86 81.8601 12.2 82.4201 11.82L82.5001 11.58L82.2801 11.5C82.2801 11.5 81.9801 11.72 81.8601 11.7C81.8601 11.7 81.2801 12.7 81.1001 14.02C81.1001 14.02 80.8001 14.1 80.5001 13.72C80.5001 13.72 80.5801 14 80.7401 14.2C80.7601 14.16 80.5401 14.24 80.1201 13.84Z" fill="white"/>
<path d="M68.64 23.56C68.64 23.56 67.74 24.58 66.3 23.94C66.3 23.94 65.3 24.16 64.54 22.94C64.54 22.94 63.86 21.64 64.54 20.48C64.54 20.48 65.42 19.04 66.64 19.7C66.64 19.7 65.06 20.58 66.18 23.36C66.18 23.36 65.48 20.96 66.82 20.28C66.82 20.28 67.5 19.9 68.52 20.42C68.52 20.42 69.48 20.9 68.74 22.98C68.74 22.98 70.22 20.34 67.84 19.56C67.84 19.56 67.46 19.44 67.16 19.56C67.16 19.56 66.68 19.18 66.02 19.12C66.02 19.12 64.4 18.94 63.82 20.1C63.82 20.1 63.06 21.4 63.9 22.86C63.9 22.86 64.64 24.18 66.28 24.06C66.28 24.06 67.44 24.76 68.54 24.04C68.54 24.04 69.98 24.42 71.1 22.92C72.22 21.42 71.52 20.2 71.52 20.2C71.52 20.2 70.84 18.5 68.58 19.3C68.58 19.3 70.32 18.92 70.84 20.72C70.84 20.72 71.18 21.76 70.46 22.74C70.42 22.74 69.64 23.84 68.64 23.56Z" fill="white"/>
<path d="M67.4 19.2601C67.4 19.2601 66.98 19.4601 66.34 19.1001C66.34 19.1001 65.84 18.8201 65.92 17.7001C65.92 17.7001 66.06 18.8201 67.3 18.6801C67.3 18.6801 67.44 17.8801 68.92 17.3201C68.92 17.3201 67.82 18.3801 68.08 18.8401C68.08 18.8401 68.32 19.2201 69.38 18.2601C69.38 18.2601 69.12 19.3201 68.1 19.2201C68.1 19.2201 68.4 19.6801 68.6 19.6801C68.62 19.6801 68.16 19.7601 67.4 19.2601Z" fill="white"/>
<path d="M82.4601 41.2201C82.6801 42.0601 83.2601 42.3001 83.9601 41.7801C84.3801 41.4801 84.7801 41.0601 85.0201 40.6001C85.8601 39.0801 86.0201 37.4001 85.9801 35.6801C85.8801 36.2601 85.8201 36.8401 85.6401 37.4001C85.5401 37.7201 85.3201 38.1401 85.0601 38.2601C83.8001 38.8001 82.8801 39.6401 82.4801 41.0001C82.4801 41.0601 82.4601 41.1401 82.4601 41.2201Z" fill="white"/>
<path d="M82.46 41.2201C82.48 41.1401 82.48 41.0601 82.5 40.9801C82.58 40.4201 82.5 39.8401 82.3 39.3201C82.12 38.8801 81.86 38.2601 81.38 38.0801C80.2 37.6401 79.74 36.4401 79.4 35.3201C79.36 35.3401 79.32 35.3601 79.3 35.3601C79.48 36.1001 79.6201 36.8401 79.8401 37.5801C80.1401 38.6001 80.48 39.5801 80.8 40.6001C80.92 40.9801 81.1201 41.4201 81.5201 41.6001C81.8801 41.7601 82.24 41.5401 82.46 41.2201Z" fill="white"/>
<path d="M82.92 37.74C82.94 37.88 82.96 38.02 82.96 38.16C83 38.72 83.34 38.94 83.86 38.72C84.44 38.48 84.68 37.94 84.88 37.4C85.32 36.18 85.38 34.92 85.32 33.64C85.3 33.32 85.28 32.98 85.16 32.66C85.14 33.14 85.16 33.64 85.06 34.1C84.98 34.46 84.84 34.94 84.56 35.12C83.6 35.76 83.08 36.62 82.92 37.74Z" fill="white"/>
<path d="M82.9 37.7401C82.9 37.4601 82.8 37.1801 82.68 36.9001C82.44 36.3001 82.12 35.5601 81.48 35.3001C80.44 34.8601 79.92 34.0401 79.48 33.1001C79.44 33.0001 79.38 32.9201 79.28 32.8401C79.38 32.9001 79.48 33.3601 79.52 33.4801C79.6 33.7001 79.68 33.9201 79.76 34.1401C79.92 34.5801 80.1 35.0401 80.28 35.4801C80.62 36.3401 81.04 37.1601 81.48 37.9601C81.62 38.2201 81.86 38.3601 82.12 38.5001C82.24 38.5601 82.38 38.6001 82.52 38.5601C82.66 38.5001 82.76 38.3601 82.82 38.2201C82.86 38.0601 82.9 37.9001 82.9 37.7401Z" fill="white"/>
<path d="M84.1 29.9401C84.12 30.3401 84.14 30.7601 84.16 31.1601C84.18 31.6001 84.04 31.9401 83.68 32.2201C82.82 32.8801 82.52 34.2201 82.94 35.2001C83.12 35.6001 83.46 35.7001 83.76 35.4001C83.92 35.2401 84.08 35.0401 84.16 34.8201C84.64 33.5201 84.62 31.3001 84.1 29.9401Z" fill="white"/>
<path d="M78.78 30.46C79.26 31.32 79.74 32.2 80.24 33.06C80.62 33.74 81.04 34.54 81.64 35.06C81.82 35.22 82.24 35.52 82.5 35.44C82.72 35.38 82.66 34.74 82.62 34.58C82.46 33.62 81.94 32.9 81.04 32.52C80.26 32.2 79.7 31.7 79.3 30.98C79.18 30.78 79.04 30.6 78.9 30.42C78.86 30.42 78.82 30.44 78.78 30.46Z" fill="white"/>
<path d="M77.3601 22.6601C77.7601 23.6601 78.1601 24.6801 78.5801 25.6801C78.8201 26.2601 79.3801 27.1601 80.1601 26.9601C80.4801 26.8801 80.6001 26.5401 80.5201 26.2401C80.4401 25.9401 80.3001 25.6401 80.0801 25.4001C79.2001 24.4601 78.3001 23.5401 77.4001 22.6201C77.3801 22.6401 77.3801 22.6401 77.3601 22.6601Z" fill="white"/>
<path d="M82.88 27.32C82.88 27.34 82.88 27.36 82.88 27.38C82.86 27.76 82.9201 28.12 82.9401 28.5C82.9601 28.84 82.82 29.16 82.56 29.38C81.82 30.04 81.84 31.18 82.26 32C82.38 32.24 82.6601 32.54 82.9401 32.32C83.4001 31.98 83.5 31.02 83.46 30.48C83.42 29.94 83.3201 29.4 83.2401 28.86C83.2001 28.6 83.14 28.32 83.08 28.06C83.06 27.92 83.02 27.8 83 27.66C82.98 27.52 82.98 27.38 82.92 27.26C82.9 27.28 82.88 27.3 82.88 27.32Z" fill="white"/>
<path d="M77.9801 28.1201C78.5401 28.8601 79.1001 29.6001 79.6801 30.3401C79.9601 30.7001 80.2401 31.0601 80.5201 31.4401C80.7601 31.7401 81.0001 32.1401 81.3401 32.3201C81.5601 32.4401 81.9401 32.4801 82.0001 32.1801C82.0401 31.9401 81.9201 31.6001 81.8601 31.3801C81.6401 30.6601 81.1601 30.0801 80.4401 29.8601C79.5401 29.5801 78.9201 29.0401 78.4001 28.3001C78.3201 28.1801 78.2201 28.0801 78.1201 27.9801C78.0801 28.0201 78.0401 28.0601 77.9801 28.1201Z" fill="white"/>
<path d="M77.2001 25.66C77.3401 25.8 77.4201 26.02 77.5201 26.18C77.6401 26.36 77.7601 26.54 77.8801 26.72C78.1401 27.08 78.4001 27.44 78.6801 27.78C79.1601 28.34 79.8201 29.18 80.5801 29.36C80.7201 29.4 80.8601 29.38 80.9401 29.26C81.0801 29.04 80.8201 28.58 80.7201 28.38C80.4401 27.78 79.9601 27.34 79.3201 27.18C78.5201 26.98 77.9201 26.54 77.4401 25.9C77.3801 25.82 77.2801 25.76 77.2001 25.66Z" fill="white"/>
<path d="M81.1 24.78C81.14 24.94 81.16 25.1 81.22 25.24C81.52 25.86 81.5 26.38 80.98 26.92C80.64 27.3 80.72 27.82 80.88 28.26C81 28.58 81.26 29.42 81.72 29.28C82.14 29.14 82.2 28.74 82.18 28.38C82.14 27.08 81.78 25.88 81.1 24.78Z" fill="white"/>
<path d="M55.0001 21.9201L54.7801 21.7001C54.7201 21.6401 54.6201 21.6001 54.5201 21.6001C54.4401 21.6001 54.3601 21.6401 54.3001 21.7001L54.2401 21.7601C54.2001 21.8001 54.1601 21.8801 54.1401 21.9401C54.1201 22.0401 54.1601 22.1601 54.2401 22.2401L54.3801 22.3801C54.5001 22.3001 54.6401 22.2401 54.7801 22.1601C54.8401 22.0801 54.9201 22.0001 55.0001 21.9201Z" fill="white"/>
<path d="M55.46 21.0201C55.36 20.9201 55.22 20.9001 55.08 20.9401C55.04 20.9601 55 20.9801 54.96 21.0201L54.9 21.0801C54.76 21.2201 54.76 21.4401 54.9 21.5601L55.14 21.8001C55.32 21.6401 55.52 21.4801 55.74 21.3001L55.46 21.0201Z" fill="white"/>
<path d="M58.4601 18.64L58.1601 18.34C58.0801 18.26 57.9801 18.24 57.8801 18.26C57.8401 18.28 57.7801 18.3 57.7401 18.34L57.6801 18.4C57.5601 18.52 57.5601 18.7 57.6801 18.82L57.9801 19.12C58.1001 19.24 58.2801 19.24 58.4001 19.12L58.4601 19.06C58.5801 18.94 58.5801 18.74 58.4601 18.64Z" fill="white"/>
<path d="M57.9201 19.4401C57.9001 19.3801 57.8801 19.3401 57.8401 19.3001L57.5001 18.9601C57.4401 18.9001 57.3601 18.8601 57.3001 18.8601C57.2001 18.8401 57.1001 18.8801 57.0201 18.9601L56.9601 19.0201C56.9201 19.0601 56.9001 19.0801 56.8801 19.1401C56.8401 19.2601 56.8601 19.4001 56.9401 19.5001L56.9601 19.5201L57.3001 19.8401L57.3201 19.8601C57.3401 19.8801 57.3601 19.9001 57.3801 19.9001C57.4201 19.9201 57.4601 19.9401 57.5201 19.9401C57.6601 19.8401 57.8001 19.7401 57.9401 19.6401C57.9401 19.5801 57.9401 19.5001 57.9201 19.4401Z" fill="white"/>
<path d="M55.6601 20.3201L55.6001 20.4001C55.5201 20.4801 55.4801 20.6001 55.5201 20.7201C55.5401 20.7801 55.5601 20.8401 55.6001 20.8801L55.9001 21.1801C56.1001 21.0201 56.3001 20.8601 56.5201 20.7001C56.5001 20.6801 56.5001 20.6801 56.4801 20.6601L56.1401 20.3401C56.1001 20.3001 56.0401 20.2601 55.9801 20.2601C55.8801 20.2401 55.7801 20.2601 55.7001 20.3201C55.6801 20.3001 55.6801 20.3201 55.6601 20.3201Z" fill="white"/>
<path d="M54.8201 19.9401L54.7601 20.0001C54.6601 20.1001 54.6601 20.2801 54.7601 20.3801L55.0401 20.6601C55.1201 20.7401 55.2201 20.7601 55.3201 20.7201C55.3001 20.5601 55.3601 20.4001 55.4801 20.3001L55.5001 20.2801C55.5001 20.2601 55.4801 20.2601 55.4801 20.2401L55.2001 19.9601C55.0801 19.8201 54.9201 19.8201 54.8201 19.9401Z" fill="white"/>
<path d="M54.6201 21.26C54.6401 21.14 54.6801 21.02 54.7801 20.94L54.8401 20.88C54.8601 20.86 54.9001 20.82 54.9201 20.8C54.9201 20.78 54.9001 20.78 54.8801 20.76L54.6001 20.48C54.5801 20.46 54.5401 20.44 54.5001 20.42C54.4001 20.38 54.3001 20.42 54.2201 20.48L54.1601 20.54C54.0801 20.62 54.0601 20.72 54.1001 20.82C54.1201 20.86 54.1401 20.9 54.1601 20.92L54.4401 21.2C54.5201 21.24 54.5601 21.26 54.6201 21.26Z" fill="white"/>
<path d="M53.98 21.8001C54 21.7401 54.04 21.6801 54.1 21.6201L54.16 21.5601C54.22 21.5001 54.3 21.4401 54.4 21.4201C54.38 21.3801 54.3601 21.3401 54.3401 21.3201L54.06 21.0401C54.04 21.0201 54.04 21.0201 54.02 21.0001C53.92 20.9401 53.78 20.9401 53.68 21.0401L53.62 21.1001C53.56 21.1601 53.52 21.2601 53.56 21.3601C53.58 21.4001 53.6 21.4401 53.62 21.4601L53.9 21.7401C53.92 21.7801 53.96 21.8001 53.98 21.8001Z" fill="white"/>
<path d="M57.4401 18.7002C57.4401 18.6801 57.4401 18.66 57.4401 18.66H57.42C57.42 18.6801 57.42 18.6801 57.42 18.7002C57.42 18.7002 57.42 18.7002 57.4401 18.7002Z" fill="white"/>
<path d="M56.2801 19.7201C56.2601 19.7401 56.2601 19.7401 56.2401 19.7601C56.1801 19.8401 56.1601 19.9601 56.1801 20.0601C56.2001 20.1201 56.2201 20.1601 56.2601 20.2201L56.6001 20.5601C56.6201 20.5801 56.6401 20.6001 56.6601 20.6001C56.6601 20.6001 56.6601 20.6001 56.6801 20.6001C56.8601 20.4601 57.0601 20.3001 57.2601 20.1601C57.2601 20.1201 57.2401 20.1001 57.2201 20.0801C57.2201 20.0601 57.2001 20.0401 57.1801 20.0201L57.1601 20.0001L56.8201 19.6601L56.8001 19.6401C56.7601 19.6001 56.7201 19.5801 56.6601 19.5801C56.5401 19.5601 56.4201 19.5801 56.3401 19.6601L56.2801 19.7201Z" fill="white"/>
<path d="M55.5801 19.3C55.5001 19.3 55.4201 19.32 55.3801 19.38L55.3201 19.44C55.2201 19.54 55.2201 19.72 55.3201 19.82L55.6001 20.1C55.6201 20.12 55.6401 20.12 55.6401 20.14C55.7401 20.08 55.8601 20.06 55.9801 20.08C55.9601 19.96 55.9801 19.84 56.0401 19.72C56.0201 19.7 56.0201 19.68 56.0001 19.68L55.7401 19.42C55.7001 19.36 55.6401 19.34 55.5801 19.3Z" fill="white"/>
<path d="M53.7801 21.88L53.5001 21.6C53.4001 21.5 53.2201 21.5 53.1201 21.6L53.0601 21.66C53.0001 21.72 52.9801 21.8 52.9801 21.9C52.9801 21.96 53.0201 22 53.0601 22.04L53.3401 22.32C53.3601 22.34 53.3601 22.34 53.3801 22.34C53.3801 22.32 53.4001 22.32 53.4201 22.3L53.4801 22.24C53.5801 22.14 53.7201 22.08 53.8601 22.08C53.8601 22.02 53.8201 21.94 53.7801 21.88Z" fill="white"/>
<path d="M58.3201 17.7601C58.2001 17.8801 58.2001 18.0601 58.3201 18.1801L58.6201 18.4801C58.7401 18.6001 58.9201 18.6001 59.0401 18.4801L59.1001 18.4201C59.2201 18.3001 59.2201 18.1201 59.1001 18.0001L58.8001 17.7001C58.6801 17.5801 58.5001 17.5801 58.3801 17.7001L58.3201 17.7601Z" fill="white"/>
<path d="M58.28 19.3802C58.3001 19.3802 58.3001 19.3601 58.3202 19.3601C58.3001 19.3601 58.28 19.3601 58.28 19.3802Z" fill="white"/>
<path d="M59.5601 16.66L59.5201 16.7C59.4801 16.74 59.4601 16.8 59.4601 16.86C59.5001 16.88 59.5401 16.9 59.5801 16.94L59.8601 17.22C59.9001 17.26 59.9201 17.3 59.9401 17.34C60.0001 17.34 60.0601 17.32 60.1001 17.28L60.1401 17.24C60.1601 17.22 60.1801 17.18 60.2001 17.16C60.2201 17.08 60.2001 16.98 60.1401 16.92L59.9001 16.68C59.8001 16.58 59.6401 16.58 59.5601 16.66Z" fill="white"/>
<path d="M58.9601 17.16C58.8401 17.28 58.8401 17.46 58.9601 17.56L59.2401 17.84C59.3601 17.96 59.5401 17.96 59.6401 17.84L59.7001 17.78C59.8201 17.66 59.8201 17.48 59.7001 17.38L59.4201 17.1C59.3001 16.98 59.1201 16.98 59.0201 17.1L58.9601 17.16Z" fill="white"/>
<path d="M58.0401 17.9C58.0601 17.8 58.1001 17.7 58.1801 17.62L58.2401 17.56C58.2601 17.54 58.3001 17.5 58.3201 17.48C58.3001 17.44 58.2801 17.4 58.2601 17.38L57.9801 17.1C57.8801 17 57.7001 17 57.6001 17.1L57.5401 17.16C57.4401 17.26 57.4401 17.44 57.5401 17.54L57.8201 17.82C57.8801 17.88 57.9601 17.9 58.0401 17.9Z" fill="white"/>
<path d="M57.8201 16.8601C57.8401 16.8601 57.86 16.8601 57.86 16.8601C57.84 16.7801 57.8601 16.7001 57.9001 16.6201L57.88 16.6401C57.86 16.6601 57.8601 16.6601 57.8401 16.6801C57.8201 16.7401 57.8001 16.8001 57.8201 16.8601Z" fill="white"/>
<path d="M58.18 16.5601L58.12 16.6201C58.02 16.7201 58.02 16.9001 58.12 17.0001L58.4 17.2801C58.48 17.3601 58.58 17.3801 58.68 17.3401C58.68 17.2201 58.74 17.1201 58.82 17.0401L58.88 16.9801C58.88 16.9801 58.88 16.9801 58.9 16.9601C58.88 16.9201 58.86 16.8801 58.84 16.8401L58.56 16.5601C58.54 16.5401 58.54 16.5401 58.52 16.5201C58.4 16.4601 58.26 16.4801 58.18 16.5601Z" fill="white"/>
<path d="M57.44 18.4601C57.46 18.3801 57.5 18.3201 57.56 18.2601L57.62 18.2001C57.66 18.1601 57.72 18.1201 57.78 18.1001C57.78 18.0401 57.74 18.0001 57.7 17.9601L57.42 17.6801C57.32 17.5801 57.14 17.5801 57.04 17.6801L56.98 17.7401C56.88 17.8401 56.88 18.0201 56.98 18.1201L57.26 18.4001C57.32 18.4401 57.38 18.4601 57.44 18.4601Z" fill="white"/>
<path d="M52.8601 21.0001C52.9201 20.9801 52.9601 20.9801 53.0201 20.9801C52.9801 20.8401 53.0201 20.6801 53.1401 20.5601L53.2001 20.5001C53.2801 20.4201 53.4001 20.3801 53.5201 20.3801C53.5001 20.2601 53.5001 20.1401 53.5801 20.0401C53.6001 20.0201 53.6201 19.9801 53.6401 19.9601L53.7001 19.9001C53.7201 19.8801 53.7401 19.8601 53.7601 19.8601C53.8601 19.8001 53.9601 19.7601 54.0601 19.7801C54.0401 19.6801 54.0601 19.5801 54.1201 19.5001C54.1401 19.4601 54.1601 19.4401 54.2001 19.4001L54.2601 19.3401C54.3001 19.3201 54.3201 19.2801 54.3601 19.2601C54.4601 19.2001 54.5601 19.2001 54.6601 19.2201C54.6601 19.1001 54.7001 18.9801 54.7801 18.8801L54.8401 18.8201C54.9401 18.7201 55.1001 18.6801 55.2201 18.7001C55.2201 18.6601 55.2201 18.6001 55.2401 18.5601V18.5401V16.5801C54.5001 17.7201 53.6601 19.3001 52.8601 21.0001Z" fill="white"/>
<path d="M59.3201 18.4401C59.3001 18.4801 59.2601 18.5201 59.2401 18.5601L59.1801 18.6201C59.0801 18.7201 58.9601 18.7601 58.8401 18.7601C58.8601 18.8001 58.8801 18.8401 58.9001 18.8801L58.9401 18.9201C59.1201 18.8001 59.2801 18.6801 59.4401 18.5601L59.3201 18.4401Z" fill="white"/>
<path d="M52.3401 23.68C52.3201 23.68 52.3001 23.7 52.3001 23.7C52.2801 23.72 52.2601 23.72 52.2601 23.74L52.2001 23.8C52.1801 23.82 52.1801 23.82 52.1801 23.84C52.2601 23.78 52.3401 23.72 52.4201 23.66C52.3801 23.66 52.3601 23.66 52.3401 23.68Z" fill="white"/>
<path d="M56.7601 18.98C56.7801 18.94 56.8001 18.92 56.8201 18.9L56.8801 18.84C56.9601 18.76 57.0801 18.7 57.2001 18.68C57.2001 18.62 57.1601 18.56 57.1201 18.52L56.8401 18.24C56.7401 18.14 56.5601 18.14 56.4601 18.24L56.4001 18.3C56.3001 18.4 56.3001 18.58 56.4001 18.68L56.6801 18.96C56.7201 18.96 56.7401 18.98 56.7601 18.98Z" fill="white"/>
<path d="M61.0201 17.4801L60.9801 17.5201L60.4201 18.1001C60.4201 18.1001 60.4201 18.1001 60.4001 18.1201C60.4001 18.1201 60.2201 18.2401 59.9201 18.4401C59.9001 18.4601 59.8801 18.4601 59.8601 18.4801C59.4801 18.7401 58.9201 19.1401 58.3001 19.6001C58.3001 19.6001 58.2801 19.6201 58.2601 19.6201C58.1801 19.6801 58.1201 19.7201 58.0401 19.7801L58.0201 19.8001C57.1601 20.4401 56.2201 21.1401 55.4801 21.7601C55.6201 21.6801 55.7601 21.6001 55.9201 21.5401C56.6201 21.1801 57.4001 20.8001 58.2401 20.4001C58.2801 20.3801 58.3201 20.3601 58.3601 20.3401C58.6601 20.2001 58.9801 20.0601 59.2801 19.9201H59.3001C59.3001 19.9201 59.3201 19.9201 59.3201 19.9001C59.3401 19.8801 59.3801 19.8801 59.4001 19.8601C60.4401 18.6601 61.1601 17.6801 61.5001 16.9401L60.9801 17.4801C61.0401 17.4601 61.0401 17.4601 61.0201 17.4801Z" fill="white"/>
<path d="M54.6201 19.86L54.6801 19.8C54.7401 19.74 54.8001 19.7 54.8801 19.68L54.7201 19.52L54.6801 19.48C54.6001 19.4 54.4801 19.38 54.3801 19.44C54.3601 19.46 54.3401 19.46 54.3201 19.48L54.2601 19.54C54.2401 19.56 54.2401 19.58 54.2201 19.6C54.1601 19.7 54.1801 19.82 54.2601 19.9L54.4601 20.1C54.5001 20.02 54.5601 19.92 54.6201 19.86Z" fill="white"/>
<path d="M59.88 17.88C59.86 17.9 59.86 17.92 59.84 17.92L59.78 17.98C59.68 18.08 59.52 18.14 59.38 18.12L59.52 18.26C59.6 18.34 59.7 18.34 59.8 18.3C59.82 18.3 59.82 18.28 59.84 18.28C59.84 18.28 59.84 18.28 59.86 18.28L59.9 18.24C59.98 18.16 59.98 18.04 59.92 17.94C59.92 17.94 59.92 17.94 59.9 17.92L59.88 17.88Z" fill="white"/>
<path d="M54.06 20.42L54.12 20.36C54.18 20.3 54.26 20.26 54.36 20.24L54.16 20.04C54.08 19.96 53.94 19.94 53.84 20.02C53.82 20.02 53.82 20.04 53.8 20.04L53.74 20.1C53.72 20.12 53.72 20.12 53.7 20.14C53.64 20.24 53.66 20.36 53.74 20.46L53.8 20.52L53.94 20.66C53.96 20.56 54 20.48 54.06 20.42Z" fill="white"/>
<path d="M52.68 23.04C52.68 23.02 52.66 23.02 52.64 23L52.36 22.72C52.28 22.64 52.16 22.62 52.06 22.68C52 22.82 51.94 22.96 51.88 23.08C51.9 23.1 51.92 23.14 51.94 23.16L52.22 23.44C52.24 23.46 52.26 23.48 52.3 23.5C52.38 23.46 52.48 23.46 52.58 23.48C52.58 23.48 52.58 23.48 52.6 23.48C52.56 23.3 52.6 23.16 52.68 23.04Z" fill="white"/>
<path d="M53.26 22.7601C53.26 22.6801 53.26 22.6201 53.28 22.5601C53.26 22.5201 53.2401 22.4801 53.2201 22.4601L52.9401 22.1801C52.8401 22.0801 52.66 22.0801 52.56 22.1801L52.5 22.2401C52.4 22.3401 52.4 22.5201 52.5 22.6201L52.78 22.9001C52.8 22.9201 52.8001 22.9201 52.8201 22.9201C52.9401 22.8201 53.1001 22.7801 53.2401 22.8001C53.2601 22.7601 53.26 22.7601 53.26 22.7601Z" fill="white"/>
<path d="M53.5001 20.9801L53.5601 20.9201C53.6401 20.8401 53.7201 20.8001 53.8201 20.8001L53.6801 20.6601C53.5801 20.5601 53.4201 20.5601 53.3201 20.6601L53.2601 20.7201C53.1601 20.8201 53.1601 20.9801 53.2601 21.0801L53.3001 21.1201L53.3801 21.2001C53.4001 21.1001 53.4401 21.0401 53.5001 20.9801Z" fill="white"/>
<path d="M52.8401 21.7C52.8601 21.64 52.9001 21.58 52.9401 21.52L53.0001 21.46C53.0801 21.38 53.2001 21.34 53.3001 21.32L53.1801 21.2C53.0801 21.1 52.9201 21.1 52.8201 21.2L52.7601 21.26C52.6601 21.36 52.6601 21.52 52.7601 21.62L52.8401 21.7Z" fill="white"/>
<path d="M51.44 24.3001C51.48 24.2601 51.54 24.2201 51.6 24.2001C51.58 24.1801 51.56 24.1801 51.56 24.1601L51.52 24.1201C51.48 24.2201 51.44 24.3001 51.42 24.3801L51.44 24.3001Z" fill="white"/>
<path d="M57.2401 17.4201C57.2601 17.4201 57.2801 17.4201 57.3201 17.4201C57.3001 17.2801 57.3401 17.1401 57.4401 17.0401L57.5001 16.9801C57.5201 16.9601 57.5201 16.9601 57.5401 16.9401C57.5001 16.9401 57.4601 16.9401 57.4201 16.9401C57.3801 16.9601 57.3401 16.9801 57.3001 17.0001L57.2401 17.0601C57.1601 17.1801 57.1401 17.3201 57.2401 17.4201Z" fill="white"/>
<path d="M58.6801 16.44L58.9601 16.72C59.0001 16.76 59.0401 16.82 59.0601 16.86C59.1201 16.84 59.2001 16.82 59.2601 16.84C59.2801 16.76 59.3001 16.68 59.3601 16.62C59.3401 16.6 59.3401 16.58 59.3201 16.56L59.1201 16.36L59.0801 16.32C59.0001 16.24 58.8601 16.24 58.7801 16.32L58.7401 16.36C58.7001 16.36 58.6801 16.4 58.6801 16.44C58.6801 16.42 58.6801 16.42 58.6801 16.44Z" fill="white"/>
<path d="M56.6601 17.9401L56.7201 18.0001C56.7401 18.0001 56.7401 18.0001 56.7601 18.0001C56.7401 17.8601 56.7801 17.7201 56.8801 17.6201L56.9401 17.5601C56.9601 17.5401 57.0001 17.5001 57.0401 17.4801C56.9401 17.4201 56.8201 17.4401 56.7201 17.5201L56.6601 17.5801C56.5601 17.6801 56.5601 17.8401 56.6601 17.9401Z" fill="white"/>
<path d="M60.7401 15.84L60.9201 16.02C60.9601 16.06 60.9801 16.1 61.0001 16.14C61.0401 16.1 61.0401 16.02 61.0001 15.98L60.8401 15.82C60.8001 15.78 60.7401 15.78 60.7001 15.8C60.7001 15.8 60.7201 15.82 60.7401 15.84Z" fill="white"/>
<path d="M60.2601 15.8201C60.3001 15.7801 60.3601 15.7601 60.4001 15.7401L60.3601 15.7001C60.3401 15.6801 60.3001 15.6801 60.2601 15.7001L60.2401 15.7201C60.2401 15.7601 60.2401 15.8001 60.2601 15.8201Z" fill="white"/>
<path d="M59.92 16.0601C59.98 16.0201 60.06 15.9801 60.14 15.9801L60 15.8401C59.96 15.8001 59.88 15.8001 59.84 15.8401L59.8 15.8801C59.78 15.9001 59.78 15.9001 59.78 15.9201L59.92 16.0601Z" fill="white"/>
<path d="M59.26 16.2201L59.44 16.4001C59.46 16.4201 59.48 16.4401 59.5 16.4801C59.58 16.4401 59.66 16.4201 59.74 16.4201C59.74 16.3401 59.76 16.2801 59.8 16.2001L59.62 16.0201C59.54 15.9601 59.44 15.9601 59.36 16.0201L59.32 16.0601C59.26 16.1001 59.26 16.1601 59.26 16.2201Z" fill="white"/>
<path d="M56.0201 18.38L56.1801 18.54C56.1601 18.4 56.2001 18.26 56.3001 18.16L56.3601 18.1C56.4001 18.06 56.4401 18.04 56.4801 18.02L56.4401 17.98C56.3401 17.88 56.1801 17.88 56.0801 17.98L56.0201 18.04C55.9201 18.14 55.9201 18.3 56.0201 18.38Z" fill="white"/>
<path d="M48.76 26.9401C48.56 27.0801 48.38 27.2001 48.28 27.2801L49.08 28.0801C49.1 28.0601 49.12 28.0601 49.16 28.0401C48.96 27.7401 48.84 27.3801 48.76 26.9401Z" fill="white"/>
<path d="M59.56 20.0001C59.54 20.0001 59.54 20.0001 59.56 20.0001C59.52 20.0201 59.48 20.0401 59.46 20.0401C59.46 20.0401 59.4401 20.0401 59.4401 20.0601H59.42C59.1 20.2001 58.8 20.3401 58.5 20.4801C58.46 20.5001 58.42 20.5201 58.38 20.5401C57.54 20.9201 56.78 21.3001 56.06 21.6601C55.8 21.8001 55.54 21.9201 55.3 22.0601C55.16 22.1401 55.04 22.2001 54.9 22.2801C54.74 22.3601 54.5801 22.4601 54.4401 22.5401C54.4001 22.5601 54.36 22.5801 54.32 22.6001C54.06 22.7601 53.82 22.9001 53.58 23.0401C53.3 23.2201 53.04 23.4001 52.8 23.5601C52.78 23.5801 52.7601 23.5801 52.7401 23.6001C52.5001 23.7601 52.3 23.9401 52.08 24.1201C52.06 24.1401 52.02 24.1601 52 24.1801C51.98 24.2001 51.94 24.2201 51.92 24.2401C51.78 24.3601 51.6601 24.4601 51.5401 24.5601C51.4801 24.6001 51.44 24.6601 51.38 24.7001C51.36 24.7201 51.3401 24.7201 51.3401 24.7401C51.2601 24.8001 51.2001 24.8601 51.1401 24.9201C51.0001 25.0201 50.88 25.1201 50.76 25.2001C50.74 25.2201 50.7 25.2401 50.68 25.2601C50.66 25.2801 50.64 25.3001 50.6 25.3201C50.54 25.3601 50.5 25.4201 50.46 25.4801C50.36 25.6401 50.3 25.8601 50.3 26.0601C50.3 26.2001 50.3201 26.5401 50.5201 26.8001C50.5401 26.8201 50.58 26.8601 50.6 26.8801C50.62 26.8601 50.66 26.8401 50.68 26.8001C50.76 26.7201 50.84 26.6201 50.96 26.6001C51.08 26.5601 51.2 26.5601 51.32 26.5401C51.76 26.5401 52.1 26.7001 52.22 26.7601C52.24 26.7601 52.2401 26.7801 52.2401 26.7801C52.2801 26.8001 52.42 26.8201 52.86 26.5801C53.24 26.3601 53.76 26.0001 54.42 25.4801C55.94 24.2801 58.22 22.2601 61.2 19.4601L61.46 19.1001C61.04 19.3601 60.38 19.6401 59.56 20.0001Z" fill="white"/>
<path d="M55.4201 18.8801L55.6001 19.0601C55.6001 18.9401 55.6401 18.8201 55.7401 18.7201L55.8001 18.6601C55.8401 18.6201 55.9001 18.5801 55.9401 18.5601L55.8801 18.5001L55.8201 18.4401C55.7201 18.3401 55.5601 18.3401 55.4601 18.4401L55.4001 18.5001C55.3201 18.6201 55.3201 18.7801 55.4201 18.8801Z" fill="white"/>
<path d="M49.86 25.6001C49.82 25.7201 49.74 25.8801 49.66 26.0401C49.78 26.1801 49.94 26.3601 50.1 26.5201C50.08 26.3801 50.06 26.2601 50.06 26.1801C49.98 26.0201 49.92 25.8201 49.86 25.6001Z" fill="white"/>
<path d="M50.12 25.8001C50.16 25.6801 50.2 25.5601 50.26 25.4601C50.3 25.3801 50.38 25.3001 50.44 25.2401C50.48 25.2001 50.52 25.1801 50.54 25.1601C50.56 25.1401 50.6 25.1201 50.62 25.1001C50.74 25.0201 50.86 24.9401 50.98 24.8201C51 24.7601 51.02 24.7001 51.04 24.6401C51.12 24.4201 51.22 24.1401 51.34 23.8601C51.34 23.8601 51.34 23.8601 51.34 23.8401C51.44 23.6001 51.54 23.3401 51.66 23.0801L51.68 23.0201C51.74 22.8801 51.8 22.7401 51.88 22.5601C51.94 22.4201 52 22.3001 52.04 22.2001C52.14 22.0001 52.24 21.7801 52.34 21.5601C53.08 19.9601 53.86 18.4401 54.54 17.2401C54.48 17.3001 54.42 17.3601 54.36 17.4201C52.42 19.3801 50.12 22.1801 49.98 23.6401C49.92 24.2601 49.92 24.7801 49.96 25.2201C50.02 25.4401 50.06 25.6401 50.12 25.8001Z" fill="white"/>
<path d="M49.56 26.2001C49.5 26.2801 49.44 26.3601 49.36 26.4401C49.22 26.5801 49.08 26.7001 48.92 26.8201C49 27.2601 49.12 27.6401 49.3 27.9201C49.58 27.7201 50.02 27.4201 50.42 27.1001L50.4 27.0801C50.38 27.0601 50.36 27.0401 50.34 27.0201C50.28 26.9601 50.22 26.9001 50.16 26.8401C49.94 26.6201 49.72 26.3801 49.56 26.2001Z" fill="white"/>
<path d="M58.72 18.9801C58.7 19.0401 58.68 19.0801 58.64 19.1201C58.68 19.0801 58.72 19.0601 58.78 19.0201L58.76 19.0001C58.74 19.0001 58.74 18.9801 58.72 18.9801Z" fill="white"/>
<path d="M60.26 16.78C60.28 16.8 60.28 16.8 60.3 16.82C60.36 16.82 60.42 16.8 60.46 16.76L60.5 16.72C60.52 16.7 60.52 16.7 60.52 16.68C60.56 16.6 60.56 16.5 60.48 16.44L60.26 16.22C60.18 16.14 60.06 16.14 59.98 16.22L59.94 16.26C59.9 16.3 59.88 16.38 59.88 16.44C59.92 16.46 59.94 16.48 59.98 16.52L60.26 16.78Z" fill="white"/>
<path d="M55.8801 19.2401L56.1601 19.5201C56.1801 19.5401 56.1801 19.5401 56.2001 19.5401L56.2201 19.5201C56.3401 19.4001 56.5001 19.3601 56.6601 19.3601C56.7001 19.2601 56.6801 19.1601 56.6001 19.0801L56.3201 18.8001C56.2201 18.7001 56.0401 18.7001 55.9401 18.8001L55.8801 18.8601C55.7801 18.9601 55.7801 19.1401 55.8801 19.2401Z" fill="white"/>
<path d="M55.42 19.12L55.3 19L55.28 18.98C55.18 18.88 55.02 18.88 54.92 18.98L54.86 19.04C54.76 19.14 54.76 19.3 54.86 19.4L55.06 19.6C55.06 19.5 55.1 19.38 55.2 19.3L55.26 19.24C55.3 19.18 55.36 19.16 55.42 19.12Z" fill="white"/>
<path d="M52.28 22.2401C52.3 22.1801 52.34 22.1401 52.38 22.1001L52.44 22.0401C52.54 21.9401 52.66 21.9001 52.78 21.9001L52.64 21.7601C52.6 21.7201 52.56 21.7001 52.52 21.7001C52.44 21.9001 52.36 22.0601 52.28 22.2401Z" fill="white"/>
<path d="M60.14 18.02C60.14 18.0401 60.14 18.0401 60.14 18.0602C60.1601 18.0401 60.1601 18.0401 60.1802 18.0401C60.1802 18.02 60.1601 18.02 60.14 18.02Z" fill="white"/>
<path d="M61.04 16.3387C61.04 16.3582 61.04 16.3582 61.04 16.3387L61.0791 16.3191C61.0791 16.3191 61.0987 16.2996 61.0987 16.28C61.0791 16.3191 61.0596 16.3191 61.04 16.3387Z" fill="white"/>
<path d="M60.2601 17.3801L60.2201 17.4201C60.1601 17.4801 60.0601 17.5201 59.9801 17.5401C59.9801 17.5801 59.9801 17.6401 59.9601 17.6801L60.0201 17.7401C60.0401 17.7601 60.0401 17.7601 60.0401 17.7801C60.1201 17.8401 60.2401 17.8401 60.3201 17.7601L60.3601 17.7201C60.4401 17.6401 60.4401 17.5201 60.3801 17.4401L60.2801 17.3401C60.2801 17.3601 60.2801 17.3801 60.2601 17.3801Z" fill="white"/>
<path d="M60.6001 15.96C60.5401 15.9 60.4601 15.9 60.4001 15.96L60.3601 16C60.3601 16 60.3401 16.02 60.3401 16.04C60.3801 16.06 60.4001 16.08 60.4201 16.1L60.6401 16.32C60.6601 16.34 60.6801 16.38 60.7001 16.4C60.7201 16.4 60.7201 16.38 60.7401 16.38L60.7801 16.34C60.8401 16.28 60.8401 16.2 60.7801 16.14L60.6001 15.96Z" fill="white"/>
<path d="M54.2001 22.48L54.1001 22.38C54.0601 22.34 53.9801 22.3 53.9201 22.28C53.8201 22.26 53.7001 22.3 53.6201 22.38L53.5601 22.44C53.5401 22.46 53.5201 22.48 53.5001 22.5C53.4601 22.58 53.4401 22.66 53.4601 22.74C53.4601 22.78 53.4801 22.84 53.5201 22.88C53.7201 22.76 53.9401 22.62 54.2001 22.48C54.1801 22.48 54.1801 22.48 54.2001 22.48Z" fill="white"/>
<path d="M60.88 17.0601L60.7 16.8801C60.68 16.8601 60.68 16.8601 60.66 16.8601C60.66 16.8601 60.66 16.8601 60.66 16.8801L60.62 16.9201C60.56 16.9801 60.48 17.0201 60.4 17.0201C60.4 17.0801 60.4 17.1201 60.4 17.1801L60.54 17.3201C60.54 17.3201 60.56 17.3401 60.56 17.3601L60.62 17.4201C60.7 17.5001 60.8 17.5001 60.88 17.4201L60.9 17.4001L60.94 17.3601C61 17.2801 61 17.1801 60.92 17.1201L60.88 17.0601Z" fill="white"/>
<path d="M60.8801 16.5201C60.8401 16.5601 60.8001 16.5801 60.7601 16.6001C60.7601 16.6401 60.7601 16.6601 60.7401 16.7001C60.7601 16.7201 60.8001 16.7401 60.8201 16.7601L60.9601 16.9001C60.9801 16.9001 61.0001 16.8801 61.0001 16.8601L61.0401 16.8201C61.1001 16.7601 61.1001 16.6801 61.0401 16.6201L60.9001 16.4801L60.8801 16.5201Z" fill="white"/>
<path d="M51.7001 24.0201C51.7201 24.0401 51.7201 24.04 51.7201 24.04C51.7601 24.06 51.8201 24.08 51.8601 24.08L51.8801 24.06C51.8801 23.92 51.9401 23.78 52.0401 23.68L52.1001 23.6201C52.1001 23.6001 52.0801 23.6 52.0801 23.58L51.8001 23.3C51.7201 23.5 51.6201 23.7 51.5601 23.88L51.7001 24.0201Z" fill="white"/>
<path d="M53.26 22.98C53.14 22.94 53.02 22.98 52.92 23.06L52.9 23.08L52.86 23.12C52.8 23.18 52.76 23.28 52.76 23.38C52.94 23.26 53.12 23.12 53.32 23C53.32 22.98 53.28 22.98 53.26 22.98Z" fill="white"/>
<path d="M52.2582 22.4787L52.1996 22.42C52.1996 22.4396 52.1801 22.4591 52.1801 22.4787C52.1996 22.4787 52.2191 22.4787 52.2582 22.4787Z" fill="white"/>
<path d="M62.9801 38.0801C62.9801 38.0801 65.3401 41.8401 66.9401 39.7001C66.7201 39.7001 65.0201 40.3201 62.9801 38.0801Z" fill="white"/>
<path d="M67.9801 39.0401C67.9801 39.0401 68.8001 38.2401 69.2201 36.9401C69.3801 36.6201 70.3801 35.7001 71.5001 36.4401C70.9401 36.5801 70.3401 36.7601 69.9801 37.4001C69.6201 38.0201 69.1801 38.7801 67.9801 39.0401Z" fill="white"/>
<path d="M68.66 39.6601L69.4 40.1601C69.4 40.1601 72.44 39.6001 73.02 37.9801C72.78 38.2801 71.92 39.3401 68.66 39.6601Z" fill="white"/>
<path d="M73.2401 35.94C73.2401 35.94 76.0401 33.92 76.1401 33.14C76.3801 33.4 77.2601 35.74 75.1401 37.26C75.1601 37.14 75.8601 35.64 75.8801 34.84C75.6801 35.02 73.5801 36 73.2401 35.94Z" fill="white"/>
<path d="M73.8401 36.38C73.8401 36.38 74.4801 36.72 74.4801 36.84C74.7001 36.4 75.3601 35.66 75.4201 35.4C75.2401 35.58 74.0001 36.32 73.8401 36.38Z" fill="white"/>
<path d="M68.2601 39.9C68.2601 39.9 69.7201 40.44 70.1401 42.26C70.0001 42.28 68.3801 42.74 67.5401 40.04C67.5201 40.32 67.0401 43.8 71.2401 43.02C71.2401 42.72 70.5801 40.6 68.2601 39.9Z" fill="white"/>
<path d="M66.04 34.7601C66.04 34.7601 67.78 33.1401 70.52 33.3201C70.44 33.4601 71.34 34.7801 72.7 35.4001C72.26 35.2601 70.46 34.5201 70.16 33.7401C69.88 33.7201 68.9 33.2801 66.04 34.7601Z" fill="white"/>
<path d="M66.32 36.5801C66.32 36.7201 66.1 36.8401 65.8 36.8401C65.52 36.8401 65.28 36.7201 65.28 36.5801C65.28 36.4401 65.5 36.3201 65.8 36.3201C66.1 36.3201 66.32 36.4201 66.32 36.5801Z" fill="white"/>
<path d="M73.7601 37.88C73.7601 37.88 73.6801 38.22 73.4601 38.34C73.6401 38.42 75.2001 38.76 75.6601 39.78C75.5601 39.54 75.1801 38.68 73.7601 37.88Z" fill="white"/>
<path d="M75.7201 38.1001C74.2401 36.2601 71.0601 35.2401 70.9001 35.1201C70.5801 34.6001 70.3401 34.4001 69.9801 34.2801C70.2601 34.4201 70.3601 35.0001 70.3601 35.0001L69.8601 34.8201C69.8601 34.8201 69.5601 34.2601 69.4401 33.9801C69.2401 34.5001 69.0001 34.6801 69.0001 34.6801C69.0001 34.6801 68.7201 34.6801 68.4401 34.6601C68.3001 34.5601 68.6001 34.3201 68.7401 34.1401C68.0801 34.1201 67.6801 34.7001 67.6801 34.7001L67.3601 34.7601C66.9801 34.7201 67.4201 34.4401 67.5801 34.2601C66.9201 34.3401 66.7401 34.6801 66.6001 34.8601C64.0601 35.1801 63.0201 37.6401 63.0201 37.6401C63.0201 37.6401 63.0001 37.7601 62.8601 37.9401C63.6001 38.3401 64.7201 37.8601 64.9601 37.7601C65.0001 37.8401 65.0801 37.9201 65.2401 37.9601C65.1801 37.9001 64.9401 37.7801 65.0601 37.4001C65.0601 37.4001 64.9001 37.5801 64.9601 37.7601C63.5601 38.1401 63.2201 38.0001 63.0201 37.9001C63.6601 36.3201 66.4201 35.4801 66.6201 35.4801C68.6401 37.2401 67.3201 38.9201 67.0401 39.4401C68.0001 39.1201 68.5801 36.2801 68.5801 36.0801C69.2801 35.7001 71.7001 36.2201 71.9601 36.3401C75.6201 37.6001 76.1201 40.2201 76.3401 40.7001C75.3601 39.9201 73.8201 38.9801 73.1801 38.8401C73.3401 39.5001 76.8001 41.5801 77.0401 41.8001C77.1601 40.4001 76.2401 38.7201 75.7201 38.1001Z" fill="white"/>
<path d="M85.3601 75.6001H10.5801V75.8401H85.3601V75.6001Z" fill="white"/>
<path d="M20.92 23.4201C20.92 24.7001 19.42 25.4001 16.72 25.4001C12.98 25.4001 10.28 23.7401 10.28 23.7401L8.88003 26.9601C8.88003 26.9601 11.58 29.1401 16.72 29.1401C22.6 29.1401 25.9 27.1601 25.9 23.6401C25.9 16.2201 13.76 19.1801 13.76 15.5401C13.76 14.2601 15.04 13.5601 17.34 13.5601C20.76 13.5601 23.16 15.0601 23.16 15.0601L24.56 11.8401C24.56 11.8401 22.18 9.82007 17.34 9.82007C11.84 9.82007 8.78003 11.8001 8.78003 15.3201C8.78003 22.7401 20.92 19.8001 20.92 23.4201Z" fill="white"/>
<path d="M31.02 28.82L32.24 26.02H40.4L41.64 28.82H46.74L38.5 10.14H34.14L25.9 28.82H31.02ZM36.34 16.76L38.9 22.6H33.76L36.34 16.76Z" fill="white"/>
<path d="M22.8 44.52L14.4 32.4H9.42004V51.08H14.4V38.96L22.8 51.08H27.78V32.4H22.8V44.52Z" fill="white"/>
<path d="M33.8401 50.7L36.5601 44.54L36.5801 44.52L39.0001 39.02L40.0001 41.28C41.1601 40.54 42.5601 39.9 44.2801 39.42L41.1601 32.4H36.8001L28.5601 51.08H33.6601L33.8401 50.7Z" fill="white"/>
<path d="M21.7 66.0201V68.0401C21.7 68.0401 20.46 69.1201 18.44 69.1201C15.62 69.1201 13.3 66.8201 13.3 63.9801C13.3 61.1601 15.6 58.8401 18.44 58.8401C21.08 58.8401 22.74 60.8601 22.74 60.8601L25.86 57.9001C25.86 57.9001 23.42 54.3201 18.44 54.3201C13.12 54.3201 8.80005 58.6601 8.80005 63.9601C8.80005 69.2801 13.14 73.6001 18.44 73.6001C24.14 73.6001 26.68 69.2401 26.68 69.2401V63.4801H24.2C22.54 63.5401 21.7 64.3601 21.7 66.0201Z" fill="white"/>
<path d="M47.0801 60.9801C47.0801 56.9401 44.4801 54.6801 39.8401 54.6801H28.7201V73.3601H33.7001V67.3001H37.2601L41.4401 73.3601H47.1001L42.7001 66.9601C45.5201 66.1601 47.0801 64.1001 47.0801 60.9801ZM39.2201 63.5401H33.7001V58.4001H39.2201C41.1601 58.4001 42.2601 59.3001 42.2601 60.9601C42.2401 62.6401 41.1601 63.5401 39.2201 63.5401Z" fill="white"/>
<path d="M54.5401 54.66H49.5601V73.34H54.5401V54.66Z" fill="white"/>
<defs>
<linearGradient id="paint0_linear_53_200" x1="54.2792" y1="53.5553" x2="37.8555" y2="48.1932" gradientUnits="userSpaceOnUse">
<stop stop-color="#6DBA82"/>
<stop offset="0.5" stop-color="#009540"/>
<stop offset="1" stop-color="#00853E"/>
</linearGradient>
<linearGradient id="paint1_linear_53_200" x1="56.4665" y1="49.0468" x2="37.4431" y2="45.3211" gradientUnits="userSpaceOnUse">
<stop stop-color="#EE7B5A"/>
<stop offset="0.5" stop-color="#E20613"/>
<stop offset="1" stop-color="#CB171A"/>
</linearGradient>
<linearGradient id="paint2_linear_53_200" x1="56.9941" y1="44.8514" x2="37.3474" y2="41.7112" gradientUnits="userSpaceOnUse">
<stop stop-color="#FFEBA9"/>
<stop offset="0.5" stop-color="#FFCB00"/>
<stop offset="1" stop-color="#F8AD00"/>
</linearGradient>
</defs>
</svg>
