<?xml version="1.0" encoding="utf-8"?>
<!-- Generator: Adobe Illustrator 25.2.0, SVG Export Plug-In . SVG Version: 6.00 Build 0)  -->
<svg version="1.1" id="Calque_1" xmlns="http://www.w3.org/2000/svg" xmlns:xlink="http://www.w3.org/1999/xlink" x="0px" y="0px"
	 viewBox="0 0 500 500" style="enable-background:new 0 0 500 500;" xml:space="preserve">
<style type="text/css">
	.st0{fill:#00953B;}
	.st1{fill:#93C01F;}
	.st2{clip-path:url(#SVGID_1_);fill:url(#SVGID_2_);}
	.st3{opacity:0.1;clip-path:url(#SVGID_3_);}
	.st4{clip-path:url(#SVGID_4_);fill:#231F20;}
	.st5{clip-path:url(#SVGID_5_);fill:url(#SVGID_6_);}
	.st6{opacity:0.1;clip-path:url(#SVGID_7_);}
	.st7{clip-path:url(#SVGID_8_);fill:#231F20;}
	.st8{clip-path:url(#SVGID_9_);fill:url(#SVGID_10_);}
	.st9{fill:#FFCD00;}
</style>
<g id="Logo">
	<path class="st0" d="M65.2,410.5l1.4-1.8c1.3,1.1,2.7,1.9,4.5,1.9c1.7,0,2.6-0.8,2.6-1.8c0-1.1-1-1.5-3.2-2.1
		c-2.9-0.7-4.8-1.5-4.8-4.1c0-2.4,2.1-4.2,5-4.2c2.2,0,3.8,0.7,5.2,1.9l-1.4,1.9c-1.2-1-2.6-1.6-4-1.6c-1.4,0-2.3,0.8-2.3,1.8
		c0,1.1,1,1.5,3.2,2c2.9,0.6,4.8,1.6,4.8,4.1c0,2.5-1.9,4.2-5.2,4.2C68.7,412.8,66.7,412,65.2,410.5"/>
	<path class="st0" d="M97.7,410.1H91l-1,2.5h-2.8l5.8-13.8h2.8l5.8,13.8h-2.8L97.7,410.1z M96.8,407.9l-2.4-5.8l-2.4,5.8H96.8z"/>
	<polygon class="st0" points="122.5,410.3 122.5,412.5 112.9,412.5 112.9,398.7 115.4,398.7 115.4,410.3 	"/>
	<path class="st0" d="M133.7,405.6c0-3.9,3.3-7.1,7.3-7.1c3.9,0,7.2,3.3,7.2,7.1c0,3.9-3.3,7.2-7.2,7.2
		C137,412.8,133.7,409.5,133.7,405.6 M145.6,405.6c0-2.6-2.1-4.8-4.7-4.8c-2.6,0-4.7,2.2-4.7,4.8c0,2.7,2.2,4.9,4.7,4.9
		C143.4,410.5,145.6,408.3,145.6,405.6"/>
	<polygon class="st0" points="160.3,398.7 162.8,398.7 170.1,408.4 170.1,398.7 172.6,398.7 172.6,412.5 170.1,412.5 162.8,402.8 
		162.8,412.5 160.3,412.5 	"/>
	<polygon class="st0" points="200.8,398.7 203.3,398.7 210.6,408.4 210.6,398.7 213.1,398.7 213.1,412.5 210.6,412.5 203.3,402.8 
		203.3,412.5 200.8,412.5 	"/>
	<path class="st0" d="M235.3,410.1h-6.7l-1,2.5h-2.8l5.8-13.8h2.8l5.8,13.8h-2.8L235.3,410.1z M234.4,407.9l-2.4-5.8l-2.4,5.8H234.4
		z"/>
	<polygon class="st0" points="253,401 248.6,401 248.6,398.7 260,398.7 260,401 255.5,401 255.5,412.5 253,412.5 	"/>
	<rect x="271.8" y="398.7" class="st0" width="2.5" height="13.8"/>
	<path class="st0" d="M286.3,405.6c0-3.9,3.3-7.1,7.3-7.1c3.9,0,7.2,3.3,7.2,7.1c0,3.9-3.3,7.2-7.2,7.2
		C289.6,412.8,286.3,409.5,286.3,405.6 M298.2,405.6c0-2.6-2.1-4.8-4.7-4.8c-2.6,0-4.7,2.2-4.7,4.8c0,2.7,2.2,4.9,4.7,4.9
		C296.1,410.5,298.2,408.3,298.2,405.6"/>
	<polygon class="st0" points="313,398.7 315.5,398.7 322.8,408.4 322.8,398.7 325.3,398.7 325.3,412.5 322.8,412.5 315.5,402.8 
		315.5,412.5 313,412.5 	"/>
	<path class="st0" d="M347.4,410.1h-6.7l-1,2.5h-2.8l5.8-13.8h2.8l5.8,13.8h-2.8L347.4,410.1z M346.5,407.9l-2.4-5.8l-2.4,5.8H346.5
		z"/>
	<polygon class="st0" points="372.2,410.3 372.2,412.5 362.6,412.5 362.6,398.7 365.1,398.7 365.1,410.3 	"/>
	<path class="st0" d="M399.4,398.7h4.9c4.6,0,7.8,2.9,7.8,6.9c0,4-3.2,6.9-7.8,6.9h-4.9V398.7z M404.6,410.3c2.9,0,5-1.9,5-4.6
		c0-2.7-2.1-4.6-5-4.6h-2.6v9.3H404.6z"/>
	<polygon class="st0" points="426.7,401 426.7,404.4 433.9,404.4 433.9,406.7 426.7,406.7 426.7,410.3 434.6,410.3 434.6,412.5 
		424.2,412.5 424.2,398.7 434.6,398.7 434.6,401 	"/>
	<polygon class="st1" points="80.5,440.9 80.5,446.1 63.7,446.1 63.7,423 69.4,423 69.4,440.9 	"/>
	<path class="st1" d="M92.9,432.7c1.1-0.9,1.8-2.1,2.1-3.2c-1.8,0-3.3-1.6-3.3-3.4c0-1.9,1.5-3.5,3.4-3.5c2.1,0,3.6,1.9,3.6,4.7
		c0,2.2-1.3,4.6-3.9,6.9L92.9,432.7z"/>
	<path class="st1" d="M126.1,442.7h-9.1l-1.3,3.4h-6.4l9.1-23h6.4l9.1,23h-6.4L126.1,442.7z M124.3,438.2l-2.8-7.1l-2.8,7.1H124.3z"
		/>
	<path class="st1" d="M155,432.9h10.5v9.6c-2.3,2.5-5.9,4-9.4,4c-6.8,0-12.5-5.5-12.5-11.9c0-6.5,5.7-11.9,12.5-11.9
		c3.6,0,7.1,1.5,9.4,4l-4.2,3.7c-1.2-1.5-3.3-2.5-5.2-2.5c-3.6,0-6.6,3.1-6.6,6.7c0,3.7,3.1,6.7,6.6,6.7c1.3,0,2.7-0.4,3.9-1.2v-2.9
		H155V432.9z"/>
	<path class="st1" d="M191.6,446.1l-5.1-7.2h-2.8v7.2H178v-23h10.7c5.1,0,8.7,3.2,8.7,7.9c0,3.4-1.9,6-4.9,7.2l5.6,7.9H191.6z
		 M183.7,433.6h4.4c2,0,3.4-1.1,3.4-2.7c0-1.6-1.4-2.7-3.4-2.7h-4.4V433.6z"/>
	<rect x="209.9" y="423" class="st1" width="5.7" height="23"/>
	<path class="st1" d="M227.8,434.5c0-6.5,5.7-11.9,12.4-11.9c3.6,0,6.9,1.5,9.1,4l-4.2,3.7c-1.2-1.5-3-2.5-5-2.5
		c-3.5,0-6.5,3.1-6.5,6.7c0,3.7,3,6.7,6.5,6.7c2,0,3.8-1,5-2.5l4.2,3.7c-2.3,2.4-5.6,4-9.1,4C233.5,446.5,227.8,441,227.8,434.5"/>
	<path class="st1" d="M260.7,436V423h5.7v12.7c0,3.2,2.1,5.6,5,5.6c2.9,0,5-2.3,5-5.6V423h5.7V436c0,6.2-4.4,10.5-10.7,10.5
		C265.2,446.5,260.7,442.1,260.7,436"/>
	<polygon class="st1" points="311.7,440.9 311.7,446.1 294.9,446.1 294.9,423 300.6,423 300.6,440.9 	"/>
	<polygon class="st1" points="328.7,428.2 321.6,428.2 321.6,423 341.4,423 341.4,428.2 334.4,428.2 334.4,446.1 328.7,446.1 	"/>
	<path class="st1" d="M353,436V423h5.7v12.7c0,3.2,2.1,5.6,5,5.6c2.9,0,5-2.3,5-5.6V423h5.7V436c0,6.2-4.4,10.5-10.7,10.5
		C357.4,446.5,353,442.1,353,436"/>
	<path class="st1" d="M400.8,446.1l-5.1-7.2H393v7.2h-5.7v-23h10.7c5.1,0,8.7,3.2,8.7,7.9c0,3.4-1.9,6-4.9,7.2l5.6,7.9H400.8z
		 M393,433.6h4.4c2,0,3.4-1.1,3.4-2.7c0-1.6-1.4-2.7-3.4-2.7H393V433.6z"/>
	<polygon class="st1" points="424.8,428.2 424.8,431.8 436,431.8 436,436.9 424.8,436.9 424.8,440.9 437.2,440.9 437.2,446.1 
		419,446.1 419,423 437.2,423 437.2,428.2 	"/>
	<path class="st0" d="M475.7,475.7H24.3V24.3h451.3V475.7z M487.2,12.8H12.8v474.4h474.4V12.8z"/>
	<g>
		<defs>
			<path id="SVGID_18_" d="M236.9,256.2c-20.8-1.8-27.9-3-36.1,2.4c-8.2,5.4-8.8,17.1-8.8,17.1s3-9.8,13.7-12.1
				c5.3-1.1,13.5,1.8,23,4.7c9.8,3,20.9,6.1,31.2,4.6c20.2-2.9,29.2-18.8,29.2-18.8S257.8,258,236.9,256.2"/>
		</defs>
		<clipPath id="SVGID_1_">
			<use xlink:href="#SVGID_18_"  style="overflow:visible;"/>
		</clipPath>
		
			<linearGradient id="SVGID_2_" gradientUnits="userSpaceOnUse" x1="-317.6713" y1="676.5013" x2="-316.6713" y2="676.5013" gradientTransform="matrix(-82.1187 -26.8104 26.8104 -82.1187 -43942.6289 47314.2891)">
			<stop  offset="0" style="stop-color:#6DBA82"/>
			<stop  offset="0.5" style="stop-color:#009540"/>
			<stop  offset="1" style="stop-color:#00853E"/>
		</linearGradient>
		<polygon class="st2" points="295.8,255.4 201.4,224.6 185.4,273.5 279.8,304.3 		"/>
	</g>
	<g>
		<defs>
			<path id="SVGID_21_" d="M236.9,256.2c-20.8-1.8-27.9-3-36.1,2.4c-8.2,5.4-8.8,17.1-8.8,17.1s3-9.8,13.7-12.1
				c5.3-1.1,13.5,1.8,23,4.7c9.8,3,20.9,6.1,31.2,4.6c20.2-2.9,29.2-18.8,29.2-18.8S257.8,258,236.9,256.2"/>
		</defs>
		<clipPath id="SVGID_3_">
			<use xlink:href="#SVGID_21_"  style="overflow:visible;"/>
		</clipPath>
		<g class="st3">
			<g>
				<defs>
					<rect id="SVGID_23_" x="191.8" y="218.8" width="104" height="59.3"/>
				</defs>
				<clipPath id="SVGID_4_">
					<use xlink:href="#SVGID_23_"  style="overflow:visible;"/>
				</clipPath>
				<path class="st4" d="M192.3,278.1c0,0,1-20.3,24.6-19c23.5,1.3,45.2,9.2,65.9,1.6c20.8-7.6,10.4-42,10.4-42
					s-66.1,21.8-85.8,27.9C187.7,252.8,192.3,278.1,192.3,278.1"/>
			</g>
		</g>
	</g>
	<g>
		<defs>
			<path id="SVGID_25_" d="M207.1,244.2c-19.7,6.1-15.1,31.4-15.1,31.4s1-20.3,24.6-19c23.5,1.3,45.2,9.2,65.9,1.6
				c20.8-7.6,10.4-42,10.4-42S226.8,238.1,207.1,244.2"/>
		</defs>
		<clipPath id="SVGID_5_">
			<use xlink:href="#SVGID_25_"  style="overflow:visible;"/>
		</clipPath>
		
			<linearGradient id="SVGID_6_" gradientUnits="userSpaceOnUse" x1="-317.417" y1="676.1545" x2="-316.417" y2="676.1545" gradientTransform="matrix(-95.1168 -18.6285 18.6285 -95.1168 -42495.1016 58655.8828)">
			<stop  offset="0" style="stop-color:#EE7B5A"/>
			<stop  offset="0.5" style="stop-color:#E20613"/>
			<stop  offset="1" style="stop-color:#CB171A"/>
		</linearGradient>
		<polygon class="st5" points="314.5,218.5 191.7,194.5 176.2,273.5 299,297.5 		"/>
	</g>
	<g>
		<defs>
			<path id="SVGID_28_" d="M207.1,244.2c-19.7,6.1-15.1,31.4-15.1,31.4s1-20.3,24.6-19c23.5,1.3,45.2,9.2,65.9,1.6
				c20.8-7.6,10.4-42,10.4-42S226.8,238.1,207.1,244.2"/>
		</defs>
		<clipPath id="SVGID_7_">
			<use xlink:href="#SVGID_28_"  style="overflow:visible;"/>
		</clipPath>
		<g class="st6">
			<g>
				<defs>
					<rect id="SVGID_30_" x="190.2" y="168.5" width="112.7" height="109.4"/>
				</defs>
				<clipPath id="SVGID_8_">
					<use xlink:href="#SVGID_30_"  style="overflow:visible;"/>
				</clipPath>
				<path class="st7" d="M192.3,277.8c-6.7-21.5,1.6-44.6,41.2-59.8c37-14.2,55.9-34.3,57.4-49.6c12.1,10.9,21.9,45.8-6.4,61.8
					c-23.8,13.5-59,8.5-75.9,19.1C197,256.6,190.7,262.2,192.3,277.8"/>
			</g>
		</g>
	</g>
	<g>
		<defs>
			<path id="SVGID_32_" d="M233,214.4c-36.8,9.9-47.7,39.7-41,61.3c-1.6-15.7,4.7-21.5,16.3-28.7c17.7-11,52.8-6.4,75.9-19.5
				c28.2-16,9.9-45.6,4.1-49.4C284.7,188.3,277.3,202.6,233,214.4"/>
		</defs>
		<clipPath id="SVGID_9_">
			<use xlink:href="#SVGID_32_"  style="overflow:visible;"/>
		</clipPath>
		
			<linearGradient id="SVGID_10_" gradientUnits="userSpaceOnUse" x1="-317.3585" y1="676.0765" x2="-316.3585" y2="676.0765" gradientTransform="matrix(-98.2334 -15.7011 15.7011 -98.2334 -41495.3789 61664.6719)">
			<stop  offset="0" style="stop-color:#FFEBA9"/>
			<stop  offset="0.5" style="stop-color:#FFCB00"/>
			<stop  offset="1" style="stop-color:#F8AD00"/>
		</linearGradient>
		<polygon class="st8" points="327.6,180.5 188.5,158.3 170.1,273.3 309.3,295.5 		"/>
	</g>
	<polygon class="st9" points="255,241.3 256.5,245.9 261.4,245.9 257.5,248.8 259,253.4 255,250.5 251.1,253.4 252.6,248.8 
		248.7,245.9 253.5,245.9 	"/>
	<path class="st1" d="M415,283.2c0,0-3.9,2.2-9.6,3.2c0,0,1.9,13.3-6.8,21.2c-0.3,0.3-0.1,0.9,0.3,0.9h6.9c0.2,0,0.5-0.2,0.5-0.4
		c0.1-0.5,0.2-1.4,0.5-2.6c0-0.2,0.7-0.2,0.7-0.4c0.1-0.4-0.4-0.9-0.3-1.3c0.3-0.9,0.6-1.9,1-2.9C410,296.8,416.3,285.7,415,283.2"
		/>
	<path class="st1" d="M359.4,280.9c0,0-2.4,7.4-3.3,9.9c0,0,4.2,3.4,6,8.8c1.4,4,1.8,7.3,1.9,8.7c0,0.3,0.4,0.5,0.7,0.3l3.7-2.6
		c0.1-0.1,0.2-0.3,0.2-0.5l-0.8-3.6l0.3-0.2c0.3-0.2,0.4-0.6,0.2-0.9l0,0c-0.3-0.4-0.7-0.7-1.2-0.9l-0.4-0.1c0,0-2.4-4-4.1-10.2
		C361,283.4,360,281.6,359.4,280.9"/>
	<path class="st1" d="M434.7,273.9c-7.5-4.7-7.4-7.8-7.8-10.9c-0.4-3-0.7-9.4-1.1-14.4s-1.8-11.4-8-14.6c-1.7-0.9-4.1-1.3-7.5-0.3
		l-2.5,0.8l-10.5,1.5l-3.6-0.3c0,0-41.2-0.9-47.1-0.9c-5.9,0-12.6,2.8-15.6,10c-3.1,7.4-13.3,30.1-13.3,30.1s-4.7-1-7.4,5.8
		c0,0-4.8-4.3-9.9-1.4c0,0-1.1,3,2.3,4.8c0,0-0.3,3.4,5.2,1.9c0,0-0.8,1.6,0.2,3.4c1,1.8,2,1.8,2,3.8c0,1.9-0.4,5.6-0.5,6.8
		c-0.1,1.1-2.6,4.1-2.5,5.9c0,1.6,0.5,3.1,1.8,3.1h5.1c1.3,0,2.7-1.2,4.4-3.2c1.7-2,6.5-7,7.5-9.8c1-2.9,1.8-8.5,1.8-8.5
		s1.9,2.3,4.3,1.6c2.4-0.7,8.2-3.9,8.2-3.9s0.5,3,4.7,4l0-8.8c0-0.2,0.2-0.4,0.4-0.4c0.2,0,0.4,0.1,0.4,0.3c0.2,1.7,0.5,9.1,0.5,9.1
		l0.8,6.6l-1.6,9.3l-1.7,3.1c-0.1,0.2,0,0.6,0.3,0.6h4.6c0.1,0,0.3-0.1,0.3-0.2l1.5-3.2h0.3c0.2,0,0.4-0.2,0.3-0.4l-0.3-3.1l1-6.3
		l2.4-4.9l6.2-17.5c0.1-0.2,0.3-0.3,0.5-0.2c0.2,0,0.3,0.2,0.3,0.4l-1.1,5.7c4.1,0.2,7.9,3.2,16.6,4.1c9.9,1.1,18.3-2.7,18.3-2.7
		l2.8,1.4v2.8c0,1.2,2,1.4,2-0.1c0-1.5,0-2,0-2l0.8,0.3v1.9c0,1,1.8,1.1,1.8-0.1c0-1.1,0-1.4,0-1.4s7.1,0.7,12.9-3.7
		c0.2-0.1-9.1-3.1-11.5-12c0-0.2,0-0.3,0.2-0.4c0.2-0.1,0.4,0,0.5,0.2c2.3,6.4,7.5,9.7,12.2,11.2c0,0,8.2,12.6,7.5,23
		c-0.1,1.3-0.8,4.9-1.1,6.4c-0.1,0.3,0.2,0.7,0.5,0.7h7.1c0.4,0,0.6-0.3,0.5-0.7l-0.9-3.6c0,0,0.2,0,0.3-0.2
		c0.1-0.3-0.3-1.1-0.3-1.1l-0.6-1.2c0,0-2.3-8.8-0.6-19.7c0.1-0.4,0-0.8-0.2-1.1c-1.4-2.1-6.9-11.8-6.1-40.3c0,0,1.3,3.2,1.8,11.1
		c0.5,7.9,0.3,13.2,2.4,16.5c2.1,3.3,6,5.8,6,5.8s-1.1,2.8,0.3,5.6c1,2.1,0.5,4-0.2,5.1c-0.1,0.2,0.1,0.3,0.2,0.2
		c0.7-0.6,1.7-1.6,2-3.1c0,0,1.4,2.2,0.9,5.4c0,0.2,0.2,0.2,0.3,0.1c0.5-1,1.1-2.9,1.1-5.6c0,0,0.7,0.4,0.9,1.9c0,0.2,0.4,0.3,0.5,0
		C439.6,282.4,440.5,277.5,434.7,273.9 M319.8,282.5l-2,4l-1.4,5.9l-3.5,7.5c-0.1,0.3-0.4,0.4-0.7,0.4c-0.4,0-0.8-0.3-0.7-0.8
		l0.2-7.3l-1.2-5c-0.2-0.7-0.2-1.4,0-2.1l0.8-3.2c0.2-0.9,0.8-1.6,1.6-2l2.7-1.4c0.2-0.1,0.5-0.2,0.7-0.2h0.9c0.5,0,0.9,0.2,1.2,0.6
		l1,1.3C320,280.9,320.1,281.8,319.8,282.5 M359.2,254.5c-0.3-1-0.6-2-1.9-3c-1.6-1.1-3.3-2.1-6.2-3.5c-2.8-1.4-5.3,0.5-7.8-0.6
		c-2.3-1-2-2.8-3.2-3.6c-1.6-1-3.8-0.2-4.4,1.2c-0.6,1.4-1.4,1.6-1.9,1.3c-0.5-0.3-0.6-1.1-0.3-1.8c1.5-3.5,5.1-8.4,14.3-8
		c9.3,0.3,12.3,0.4,12.3,0.4s-0.3,2.1,1,3.7c1.2,1.6,1.4,3.6,0.1,5.8c-1.3,2.2-0.6,3.8,0.4,5.2c0.5,0.7,0.8,1.4,0.9,2.1
		c0.1,0.7-0.3,1.6-1,1.8C360.7,255.7,359.5,255.7,359.2,254.5 M393.3,279.8c-2.2,0.8-6.8,2.1-12.1,2.4c-5.2,0.2-9.4-1-11.5-1.7
		c-0.5-0.1-0.9-0.3-1.3-0.5c0,0,0,0,0,0l0,0c-0.2-0.1-0.3-0.2-0.5-0.3c-0.8-0.6-1.2-1.4-1.9-2c-0.7-0.5-1.5-0.9-2-1.5
		c-1.1-1.4-0.7-3.2-0.7-4.9c0-0.9-0.2-1.7-0.6-2.6c-0.7-1.8-0.6-3-0.6-4.9c0-1.5-1.1-3.4-0.2-4.8c0.5-0.8,1.3-1.1,2.1-0.4
		c0.7,0.6,0.6,1.5,0.6,2.4c0,1.2,0.7,0.9,1.1,0.1c0.3-0.6,0.2-1.3,0.5-1.9c0.4-0.7,0.9-1.4,1.7-1.9c0.8-0.5,1.7-0.6,2.6-0.8
		c0.4-0.1,0.8-0.2,1.2-0.4c0.4-0.2,0.7-0.5,1.1-0.7c0.7-0.4,1.7-0.5,2.3,0.2c0.6,0.6,0.3,1.6-0.2,2.2c-0.6,0.5-1.3,0.8-2,1
		c-0.7,0.3-1.2,0.8-1.7,1.5c-0.5,0.8-0.9,1.7-1,2.7c-0.1,0.9,0.4,1.6,0.9,2.3c0.6,0.7,1.2,1.4,1.7,2.2c0.5,0.8,0.9,1.7,1.2,2.6
		c0.2,0.7,0.4,1.5,0.7,2.2c0.2,0.7,0.5,1.4,1,2c0.5,0.6,1.2,0.9,1.9,1c0.8,0.2,1.7,0.2,2.5,0.4c0.7,0.1,1.4,0.4,2,0.8
		c0.1,0,0.1,0,0.2,0c0.5,0.5,1.2,0.8,1.9,0.9c0.3,0,0.7,0.1,1,0c0.4-0.1,0.8-0.3,1.2-0.5c1.4-0.7,2.8-0.7,4.3-0.4
		c1.3,0.3,2.5,0.8,3.8,1.1C395.7,278,394.7,279.3,393.3,279.8 M416.1,261.8c-1.6,2.2-4.5,3.1-6.4,2.6c-2.9-0.8-3.6-3.5-2.1-5.3
		c2-2.3-1.1-5.3-3.2-3.5c-2.8,2.4-8.9-0.3-7.6-8c1.3-7.7-5.7-7.2-7.6-7.2c-1.9,0-2-2.8,0-2.8c1.9,0,3,0,3,0l4.6,0.3l10.8-1.6
		c0,0,6.2-2.4,8.3-1.2c2.1,1.2-0.4,3.3-1.3,4.2c-0.9,0.9-3.6,2.7-4.9,3.7c-1.3,1,0.5,3.7,2.3,2.4c1.8-1.3,3.2,0.8,1.9,2
		c-1.3,1.3-2.8,2.4-3.8,3.8c-1.2,1.6,0.3,3.8,2.6,3C415.7,253.3,419.5,257.3,416.1,261.8"/>
	<path class="st0" d="M292,331.1c0.6,0.3,1.3,0.3,2,0.3c-0.4,0.8-0.3,1.8,0.8,2.4c1.1,0.6,1.8,0.2,2.2-0.6c0.8,1.3-0.2,3.3-0.7,4.5
		c-1,2.4-1.8,4.6-2.3,7.1c-1.4,7.1,0.2,15.2,7.5,19c3,1.5,6.3,2.5,9.5,2.9c0.6,1,1.4,2.3,1.4,3.3c0,0.7-0.3,1.3-0.8,1.7
		c-0.5,0.5-1.1,0.9-1.7,1.2c2.1,0.1,3.5,0.6,4.1-1c0.1-0.2,0.1-0.5,0.2-0.9c0.2-1.2,0.2-2,0.8-3.1c0.2-0.4,0.5-0.8,0.9-1.2
		c4-0.4,7.9-2,11-4.9c2.7-2.6,4.5-5.8,5.3-9.3c0.1-0.6,0.2-4-0.7-4c1.7-1.6,3.9-3.8,0-3.5c0.8-0.5,4.2-2.7,4.4-3.8
		c0.2-1.9-2.8-0.9-3.9-0.7c1.5-0.9,7.1-1.3,5.7-3.5c-1.4-2.2-5.4-1.8-7.7-1c1.5-0.7,2.8-1.6,4.3-2.1c1.4-0.5,3-0.6,4.2-1.4
		c-1.4-2.2-8.1-0.8-10.2-0.2c-3.5,0.9-5.3,3.2-7.5,5.3c-3.4,2.2-8.1,4.6-11.9,2.7c-4.5-2.2-2.9-8.5-4.7-12.1
		c-0.4-0.9-1.1-1.6-1.8-2.1c-0.7-2.5-2.3-5-5-5.2c0.5,0.8,1.4,1.3,1.9,2.2c-1.1-0.5-4.2-2-5-0.5c0.6,0.4,1.3,0.8,2.1,1.1
		c-0.9-0.3-2.2-0.6-3.1-0.1c-1.1,0.6-1,1.5,0.4,1.5c-1.2-0.1-2.4,1.4-1.6,2.3c0.4,0.4,1.1,0.7,1.8,0.7c0.5-1.2,2.7-2.6,3.7-2.6
		c-1.5,0.6-3.1,2-3.6,3.1c0,0.2-0.1,0.3-0.1,0.5C293.1,329.6,292.2,330.2,292,331.1 M299.9,343.5c0.1,0.1,0.2,0.2,0.4,0.4
		c0,0,0,0,0,0c-0.3,0.5-1.3,1.6-1.4,2.1c-0.3,1.1-0.5,2.2-0.3,3.4c0.4,2.4,2.9,4.1,5,5.6c2.1,1.4,4.4,2.3,7.2,2.2
		c3.5-0.1,6.8-1.5,9.7-3c1.6-0.8,2.6-1.6,3.8-2.8c0.5-0.5,0.9-1.1,1.3-1.6c0.1-0.2,0.8-1.2,0.8-1.5c0-0.6-0.8-0.3-1.3-0.2
		c-0.6,0.1-1.2,0.1-1.8-0.1c0.5-1.1,2.7-1.5,3-2.9c0.3-1.5-2.4,0.1-3.1,0.1c0.4-1.1,2.2-1.8,2.4-2.9c-1,0.4-1.8,1.3-2.8,1.8
		c0.4-0.6,1.2-0.9,1.8-1.4c0.7-0.6,1.1-1.2,1.6-1.9c1.4,0.6-1.3,3-1.6,3.6c1,0.1,3.1-0.9,2.5,0.6c-0.5,1.1-1.6,1.8-2.5,2.7
		c0.1,0,0.3,0,0.4-0.1c0.9-0.1,1.9-0.8,1.9,0.2c0,0.9-0.7,2.1-1.2,2.9c-2.4,3.7-8.4,6.3-13.1,6.8c-6.1,0.7-13.4-3-14.9-8.3
		C297.1,347,298.4,345.1,299.9,343.5"/>
	<path class="st0" d="M439.2,332.7c-2.1-0.4-4.4-0.2-6.6-0.4c-2.4-0.2-4.5-1-6.7-1.5c-0.8-0.3-1.6-0.4-2.4-0.6
		c-1.6-0.5-12.1-3.5-13.9-4.4c-3.5-2-7.5-3-11.5-3.6c-4.2-0.8-8.5-1.3-12.8-1.5c-4.5-0.2-9-0.1-13.5,0.1c-4.1,0.2-8.1,0.7-12,1.9
		c-3.2,1-5.8,3-7.3,5.6c-0.9,0.9-1.8,2-2.8,2.7c-0.5,0.3-1.1,0.4-1.7,0.2c-0.1-0.1-0.3-0.1-0.4-0.2c0,0,0.1-0.1,0.1-0.1
		c0.7-1.1,0.7-3-0.4-3.9c-0.8-0.8-2.1-0.9-2.8,0.2c-0.9,1.5-0.1,3.2,1.3,4.2c-0.3,0.2-0.5,0.4-0.8,0.6c-1.4,0.8-2.6-0.2-3.6-1.1
		c-0.2-0.2-0.5,0-0.3,0.3c0.6,1,1.5,2.3,2.8,2.3c1.2-0.1,2.2-0.6,3-1.4c0.7,0.3,1.4,0.5,2,0.5c0.6,0,1.1-0.2,1.5-0.5
		c-0.3,0.8-0.4,1.7-0.6,2.4c-0.7,3.1-0.8,6.2,0,9.3c0.8,2.7,2.7,5,4.4,7.1c0.4,0.5,0.9,1.1,1.5,1.6c0.1,0.4,0.3,0.8,0.4,1.2
		c0.5,1.4,0.8,3.1,0.6,4.6c-0.2,1.1-1,2-1.4,3c-0.3,0.9-0.4,1.8-0.2,2.8c0.3,1.8,0.4,3.2,0,5c-0.3,1.3,0,2.6,1.3,3.1
		c0.9,0.4,3.8,1.3,4.5,0.1c0.4-0.6,0-1.2-0.3-1.8c-0.4-1.1-0.4-3.4,0.1-4.7c0-0.1,0-0.1,0.1-0.2c0.2-1.4,0.5-3.5,0.8-4.3
		c0.8-2.1,0.9-4.7,2.3-6.5c1.5-1.8,4.8-2.3,7-3c6.8-2,11-4.3,13.7-10c-1.4,7.7-10.7,11.5-17.6,12.4c-2.6,0.3-2.6,2.1-3.4,4.5
		c-0.7,2.2-1.6,4.7-1.9,6.9c0.8,1.4,1.1,3.2,1.8,4.6c0.7,1.4,1.4,1.9,2.8,2.3c1.1,0.3,2.4,0.7,3.6,0.4c0.7-0.2,0.8-1,0.3-1.5
		c-1.2-1.3-2.4-2.1-3.2-3.8c-1.4-3-0.8-7,0.1-10l0.2-0.6c1.5,0.7,3.1,1.4,4.6,2c4.6,1.9,9.4,2.7,14.3,2.5c4-0.2,8.1-1,12-2.1
		c-0.1,0.9-0.3,1.8-0.4,2.7c-0.1,0.9,0.2,1.7,0.6,2.5c0.7,1.3,1.4,2.6,1.9,4c0.6,1.5,1.1,3.4,2.7,4.1c0.8,0.3,1.9,0.1,2.8,0.2
		c0.8,0.1,1.6,0.2,2.4-0.1c0,0,0.1,0,0.1,0c-0.6-1-1-2.5-1.4-3.2c-1-2-2-4-2.6-6.1c-0.7-2.3-0.5-3.1,0.7-5.1c0.5-0.8,1-1.7,1.5-2.7
		l-0.7,2.3c-1.3,3-1.4,2.3-0.6,5.7c0.6,2.9,2.1,7.1,3.8,9h0c1.4,0.7,3.1,0.3,3.2-1c0-0.7-0.4-1.3-0.7-1.9c-1-1.6-2-3.1-2.7-4.8
		c-0.7-1.6-1.2-3.3-1.2-5.1c0-0.7,0.2-1.4,0.4-2.1c0.7-0.5,1.4-0.9,2.2-1.3c1,1.2,2.1,2.3,3.6,2.8c1.9,0.7,3.6,0.5,5.6,0.3
		c2.4-0.2,7.4,2.1,13.8,2.3c1,0,2.3-0.6,3.2-0.1c0.8,0.5,1.6-0.5,1.8-1.2c0.7-1.9,1.5-3.4,2.7-5c0.3-0.4-0.2-0.9-0.6-0.8
		c-1.2,0.4-2.4,1.1-3.7,0.9c-1.9-0.3-1-2.8-0.7-3.9c0.7-2.2,2.7-1.6,2.6-4c0-2.2-0.6-4.2-1.6-6.1c0.7,0,1.4-0.1,2.2-0.3
		c1.6-0.4,4-1.4,5.5-0.2c0.4,0.3,0.9,0.1,0.9-0.4C446.1,336.9,442.8,333.5,439.2,332.7 M346.6,330.3
		C346.6,330.3,346.6,330.3,346.6,330.3c-1.1-0.5-1.1-1.3,0.1-2.3C347.2,328.8,347,329.6,346.6,330.3 M413.3,349.5
		c-0.8-3.1-0.4-5.2,1.6-8.1L413.3,349.5z M433.1,336.2l3.5,3.6C434.3,339.9,433.5,338.1,433.1,336.2"/>
	<path class="st0" d="M418.4,372.7c1.2-0.4,3.2-2.5,3.2-2.5s-9.3,0.7-11.5,1.8c0.9-0.5,2.2-1,2.6-2c-3.1-0.2-6.5,1.7-9.3,2.7
		c0.1-0.1,0.3-0.1,0.4-0.2c-2.7,0.8-5.8-0.3-8.5,0.9c1-0.5,2.5-0.8,3-1.8c-1.6-0.1-3.2-0.1-4.8,0.2c-1.3,0.2-2.8,0.9-4.1,0.9
		c0.8-1,3-1.8,3-3.2c-2.3,0.3-4,2.1-6.1,3c1-1.8,3-2.6,4.8-3.4c-2.7-2.8-9.8,0.8-13.3,2.9c-0.2,0-0.4-0.1-0.6-0.1
		c1-1.3,2.6-2.1,3.7-3.1c-2.3,0.3-4.4,1.2-6.3,2.3c1.8-3.1-6.2,0.8-6.4,0.7c-0.9-0.5,0.5-2.2-1.5-2c-1.5,0.2-1.7,1.9-1.6,3.1
		c-2-0.8-7.1-4.4-9-1.8c0.8,0.9,2.2,1.3,3.1,2.1c-2,0.3-4-0.5-6.1-0.3c0.2,1.3,2.8,1.7,3.9,1.8c-1.6,1.2-4.8,1.1-6.8,1.4
		c5.7,1.1,23.8,0.9,27.3,0.9c4.5,0,14.6,0.7,19.1,0.5c4.8-0.2,22.8-1,24.8-1.1c1.4-0.1,7,0.4,8.8,0
		C429.2,374.9,420.3,372.7,418.4,372.7"/>
	<path class="st0" d="M304.2,372.7c-1.2-0.4-3.2-2.5-3.2-2.5s9.3,0.7,11.5,1.8c-0.9-0.5-2.2-1-2.6-2c3.1-0.2,6.5,1.7,9.3,2.7
		c-0.1-0.1-0.3-0.1-0.4-0.2c2.7,0.8,5.8-0.3,8.5,0.9c-1-0.5-2.5-0.8-3-1.8c1.6-0.1,3.2-0.1,4.8,0.2c1.3,0.2,2.8,0.9,4.1,0.9
		c-0.8-1-3-1.8-3-3.2c2.3,0.3,4,2.1,6.1,3c-1-1.8-3-2.6-4.8-3.4c2.7-2.8,9.8,0.8,13.3,2.9c0.2,0,0.4-0.1,0.6-0.1
		c-1-1.3-2.6-2.1-3.7-3.1c2.3,0.3,4.4,1.2,6.3,2.3c-1.8-3.1,6.2,0.8,6.4,0.7c0.9-0.5-0.5-2.2,1.5-2c1.5,0.2,1.7,1.9,1.6,3.1
		c2-0.8,7.1-4.4,9-1.8c-0.8,0.9-2.2,1.3-3.1,2.1c2,0.3,4-0.5,6.1-0.3c-0.2,1.3-2.8,1.7-3.9,1.8c1.6,1.2,4.8,1.1,6.8,1.4
		c-5.7,1.1-23.8,0.9-27.3,0.9c-4.5,0-14.6,0.7-19.1,0.5c-4.8-0.2-22.8-1-24.8-1.1c-1.4-0.1-7,0.4-8.8,0
		C293.4,374.9,302.3,372.7,304.2,372.7"/>
	<path class="st1" d="M390.6,115.7c-0.7-0.5-2.3-0.1-2.3-0.1c-5.9,7.6-12.4,18.5-12.4,18.5c-6.6,10.4-18.3,14.8-18.3,14.8
		c-12,5.2-26.3,0.1-26.3,0.1c-2.5-1.7-6.5-5.4-6.5-5.4c-1.4-1-2.4,3.5-2.4,3.5l2.7,5.1c7.4,10.5,18.6,13.9,18.6,13.9
		c21.3,7,33.3-10.5,33.3-10.5c9.2-12.5,7.3-25.7,7.3-25.7c4.6-5.7,7.5-7.5,7.5-7.5C392.6,121.2,390.6,115.7,390.6,115.7
		 M364.4,146.7c5.5-3.1,13.6-12.7,13.6-12.7c0,3.3-2.3,7.6-2.3,7.6c-10.5,17.2-25.5,14.7-25.5,14.7
		C348.5,155.3,358.9,149.8,364.4,146.7 M364.2,163.6c0,0-19.1,9.2-35.3-9.6c0,0,21,10.3,36.5,0.7c0,0,7.8-3.9,15.7-16.8
		C381.1,138,379.1,156.4,364.2,163.6"/>
	<path class="st0" d="M271.3,73.5c-1.2,0-2.3-0.3-3.5-0.3c0.5-1.5,3.2-3.7,4.9-3.9c-2.1,0.2-4.1,1.5-6.2,1.5
		c-0.3-0.1,0.8-2.1,0.9-2.1c-1,0.2-2.1,1-2.9,1.6c0.3-1.1,0.9-2.9,0.8-4c-0.9,4.1-3.8,2.9-6.9,2.2c-1.8-0.4-3.6-0.6-5.4-0.7
		c-3.3-0.2-6.1-0.2-9.1,1.6c-4.3,2.5-6.7,6.9-7.8,11.6c-1.1,5-1.2,13-6.6,15.6c-1.6,0.8-3.2,1.5-4.6,2.6c1.1-0.4,2.7-1,3.9-0.9
		c-1.2,1.4-2.9,3.3-4.6,4c0.9-0.4,6.1-2,6.3-2.8c-0.6,2.5-1.5,5.5-3,7.5c1.7-2.2,3.4-4.3,5.2-6.4c-0.1,1.5-0.1,2.9-0.1,4.4
		c0.1-2,2.3-4.7,4-5.6c2.8-1.4,6.1,0,8.9,0.7c4.2,1,8.8,1.3,13,0.3c4-0.9,6.4-3,8.8-6.2c3.4-4.5,3.4-9.3,2.4-14.5
		c-0.2-1.2-0.8-2.2-0.9-3.5C268.5,74.5,269.4,73.5,271.3,73.5 M259.2,98.4c0,0-6.3,3.6-17.6,0c0,0,4.3-0.4,7.2-1.5
		c0,0-6.2,0.9-8.6,0.4c0,0,7.4-1.9,13.1-10.2c0,0-8.1,7.8-16.5,7.8c0,0-1.6-17,16.5-23.6c0,0-10.5,0.3-15.7,10.5
		c0,0,4.9-19.9,26.2-9.6c0,0-13.3-2.8-23.3,15.3c0,0,12.5-17.3,24.3-12.6c0,0,1.6,13.5-13.4,19.9c0,0,13.1-2.1,15.3-16.9
		C266.6,78,272.6,90.7,259.2,98.4"/>
	<path class="st0" d="M360,76.4l-0.1-1.7l-1.4-2l-1.6-2.9l-2.9-1.2l-1-0.8l-5.6-0.8l0-0.6l-5.2-1.1l-6.7-0.3l-2.1,0.6l-0.1-1.3
		l-3.1-0.4l-8.2,0.5l-3.8,1l-0.8-0.7l-18.5,4.2l-1.8,0.7l-8.3,4l0,0.7l4.7,0.4l6-0.4l8.3,0.4l12.3,2.5l1,0.9l3.6,1.3l-0.1-1.2
		l3.3,2.9l2.7-0.2l0.6-0.7l1.6,1.4l8,2.7l1.3-0.4l7.9,2.1l3.4-0.2l1.2-0.5l1.7-1.2l1.9-1.8L360,76.4z M353.1,84.1l-0.1-1.6l-2.2,1
		l-2.3-0.7l-5.9-2.1l0.7-1.4l-2,1.4l-1.7,1.2l-4.9-1.3l-0.1-1.1l-1.6,0.1l-1.8-0.8l-0.9-3l0.1,2.3l-2.4-0.9l0.1,1.2l-1.1,0.1
		l-4.9-3.4l0.1,1.8l-2.3-1.1l-9.2-1.9l-0.1-1.6l-1.3,0.7l-1.9,0l-6.1,0.4l-10.4,0l3.2-1l5.3-1.1l11.5-0.5l2.5-1.8l3.3-1.1l2.9-0.2
		l-0.6,1.7l0.1,2.4l1.2,1l2.7-3.1l-0.6,1.9l2-0.1l4.3-2.8l3.8-1.9l-3.6,4.1l-0.9,1.9l0.1,1.9l1.4-1.6l0.9,0.8l2.7-1.5l1.6-1.8
		l-0.9,2.6l4.6-2.9l2.3-0.1l-1.4,0.9l-4.2,4.7l0,1.4l1.7-1.2l2-0.1l2.1-1l0.9,0.8l1.8-2l1.8-0.1l2-1.2l3-1.1l-2.2,2.5l-2,1.6
		l-1.8,2.1l3-0.8l1.6-0.1l2,1.2l2-0.1l1.1,1l-0.6,2.4l2.8-2.1l1.1,1l-1.7,2.6L353.1,84.1z"/>
	<polygon class="st0" points="361.5,75.9 367.2,74.9 380.3,73.7 388.2,73.3 388.2,74.6 378.1,76.5 363,77 372.9,77.9 384.1,80.8 
		384.1,81.9 374.7,81.1 381.4,83.8 387.1,86.3 386.2,87.3 370.2,83.1 363,80.5 369.8,84.2 380.1,88.1 374.8,87.4 380,90.7 
		381.5,91.7 375.8,89.8 368.6,86.5 372.6,90 372.7,90.9 366.3,87.7 359,83 360.5,80.2 361.3,78 	"/>
	<path class="st1" d="M414.8,115.8c-3.2-1.1-4.3-4-4.9-7.1c-0.7-3.4-2.1-6.6-3.5-9.8c-1.2-2.7-2.9-5.5-2.5-8.5
		c0.3-2.2,1.3-4.8,3.4-6c1.6-0.9,4.7-2.4,6.3-1c-2.2-2.1-5.5-1.9-8.1-0.4c-2.6,1.5-4.7,4.2-4.6,7.3c0.2,5.6,5.2,10.6,5.6,16.4
		C406.8,110.9,410.5,115.3,414.8,115.8"/>
	<path class="st1" d="M419.9,85.9c3,1.4,3.7,5.1,3.8,8.1c0.1,2.6-0.1,5.1,0.1,7.7c0.3,3.1,2,6,1.6,9.2c-0.2,1.7-1,3.2-2.5,4
		c-2,1.1-4.3,0.8-5.9-0.8c-1.9-1.9-1.9-4.6-1.8-7.1c0.1-2.4-0.7-5-1.6-7.2c1.1,2.6,1,6,0.9,8.8c-0.1,2.8-0.1,6.1,2.5,7.8
		c1.3,0.8,3,0.9,4.4,0.6c2.4-0.5,4.8-1.9,5.7-4.3c0.6-1.4,0.2-2.8,0-4.2c-0.4-3-1.2-6-1.6-9c-0.3-2.7,0.5-5.5,0.1-8.2
		c-0.4-3-2-6.4-4.6-8c-2.6-1.6-5.7-0.3-7.8,1.4c-1.7,1.4-2.3,3.5-2.2,5.6c0,2.5,0.9,5.6,1.9,7.8c-1.3-2.8-1.3-6.6,0.1-9.4
		C414.2,86.4,417.3,84.7,419.9,85.9"/>
	<path class="st1" d="M427,77.8c4.4-0.2,6.3,3.5,6.5,7.4c0.2,2.8-0.1,5.7-0.6,8.5c-0.5,3,0.3,6.1,0.6,9.1c0.2,2.1,0.5,4.5-0.2,6.5
		c-0.3,0.8-0.6,1.6-1.2,2.2c-0.4,0.5-0.9,0.9-1.5,1.2c-0.3,0.2-0.8,0.2-1.2,0.2c-0.5,0-0.9-0.1-1.3-0.1c2.9,0.3,3.9-2.8,4.1-5.1
		c0.3-2.9-0.7-5.8-1.1-8.6c-0.4-2.5-0.6-4.6-0.2-7.1c0.5-2.9,0.7-6.3-0.6-8.9c-0.9-1.8-2.7-2.9-4.7-2.9c-2,0-3.4,0.9-4.9,2.1
		C421.6,79.5,424.3,77.9,427,77.8"/>
	<path class="st1" d="M410.6,79.2c0,0,2.1,5.6,6.2,3c0,0,2.9,1,4.9-2.4c0,0-0.7,0.9-1.8,0.5c0,0,1.7-0.5,2.7-3.4c0,0-1.6,1.9-3,2.2
		c0,0,0.4-0.7,0.3-1.3c0,0-0.9,1.5-2,1.5c0,0,1.4-8.3,4.2-10.2l0.4-1.2l-1.1-0.4c0,0-1.5,1.1-2.1,1c0,0-2.9,5-3.8,11.6
		c0,0-1.5,0.4-3-1.5c0,0,0.4,1.4,1.2,2.4C413.8,80.8,412.7,81.2,410.6,79.2"/>
	<path class="st0" d="M353.2,127.8c0,0-4.5,5.1-11.7,1.9c0,0-5,1.1-8.8-5c0,0-3.4-6.5,0-12.3c0,0,4.4-7.2,10.5-3.9
		c0,0-7.9,4.4-2.3,18.3c0,0-3.5-12,3.2-15.4c0,0,3.4-1.9,8.5,0.7c0,0,4.8,2.4,1.1,12.8c0,0,7.4-13.2-4.5-17.1c0,0-1.9-0.6-3.4,0
		c0,0-2.4-1.9-5.7-2.2c0,0-8.1-0.9-11,4.9c0,0-3.8,6.5,0.4,13.8c0,0,3.7,6.6,11.9,6c0,0,5.8,3.5,11.3-0.1c0,0,7.2,1.9,12.8-5.6
		c5.6-7.5,2.1-13.6,2.1-13.6s-3.4-8.5-14.7-4.5c0,0,8.7-1.9,11.3,7.1c0,0,1.7,5.2-1.9,10.1C362.1,123.7,358.2,129.2,353.2,127.8"/>
	<path class="st0" d="M347,106.3c0,0-2.1,1-5.3-0.8c0,0-2.5-1.4-2.1-7c0,0,0.7,5.6,6.9,4.9c0,0,0.7-4,8.1-6.8c0,0-5.5,5.3-4.2,7.6
		c0,0,1.2,1.9,6.5-2.9c0,0-1.3,5.3-6.4,4.8c0,0,1.5,2.3,2.5,2.3C353.1,108.4,350.8,108.8,347,106.3"/>
	<path class="st0" d="M422.3,216.1c1.1,4.2,4,5.4,7.5,2.8c2.1-1.5,4.1-3.6,5.3-5.9c4.2-7.6,5-16,4.8-24.6c-0.5,2.9-0.8,5.8-1.7,8.6
		c-0.5,1.6-1.6,3.7-2.9,4.3c-6.3,2.7-10.9,6.9-12.9,13.7C422.4,215.3,422.3,215.7,422.3,216.1"/>
	<path class="st0" d="M422.3,216.1c0.1-0.4,0.1-0.8,0.2-1.2c0.4-2.8,0-5.7-1-8.3c-0.9-2.2-2.2-5.3-4.6-6.2
		c-5.9-2.2-8.2-8.2-9.9-13.8c-0.2,0.1-0.4,0.2-0.5,0.2c0.9,3.7,1.6,7.4,2.7,11.1c1.5,5.1,3.2,10,4.8,15.1c0.6,1.9,1.6,4.1,3.6,5
		C419.4,218.8,421.2,217.7,422.3,216.1"/>
	<path class="st0" d="M424.6,198.7c0.1,0.7,0.2,1.4,0.2,2.1c0.2,2.8,1.9,3.9,4.5,2.8c2.9-1.2,4.1-3.9,5.1-6.6
		c2.2-6.1,2.5-12.4,2.2-18.8c-0.1-1.6-0.2-3.3-0.8-4.9c-0.1,2.4,0,4.9-0.5,7.2c-0.4,1.8-1.1,4.2-2.5,5.1
		C428,188.8,425.4,193.1,424.6,198.7L424.6,198.7z"/>
	<path class="st0" d="M424.5,198.7c0-1.4-0.5-2.8-1.1-4.2c-1.2-3-2.8-6.7-6-8c-5.2-2.2-7.8-6.3-10-11c-0.2-0.5-0.5-0.9-1-1.3
		c0.5,0.3,1,2.6,1.2,3.2c0.4,1.1,0.8,2.2,1.2,3.3c0.8,2.2,1.7,4.5,2.6,6.7c1.7,4.3,3.8,8.4,6,12.4c0.7,1.3,1.9,2,3.2,2.7
		c0.6,0.3,1.3,0.5,2,0.3c0.7-0.3,1.2-1,1.5-1.7C424.3,200.3,424.5,199.5,424.5,198.7"/>
	<path class="st0" d="M430.5,159.7c0.1,2,0.2,4.1,0.3,6.1c0.1,2.2-0.6,3.9-2.4,5.3c-4.3,3.3-5.8,10-3.7,14.9c0.9,2,2.6,2.5,4.1,1
		c0.8-0.8,1.6-1.8,2-2.9C433.2,177.6,433.1,166.5,430.5,159.7"/>
	<path class="st0" d="M403.9,162.3c2.4,4.3,4.8,8.7,7.3,13c1.9,3.4,4,7.4,7,10c0.9,0.8,3,2.3,4.3,1.9c1.1-0.3,0.8-3.5,0.6-4.3
		c-0.8-4.8-3.4-8.4-7.9-10.3c-3.9-1.6-6.7-4.1-8.7-7.7c-0.6-1-1.3-1.9-2-2.8C404.3,162.1,404.1,162.2,403.9,162.3"/>
	<path class="st0" d="M396.8,123.3c2,5,4,10.1,6.1,15.1c1.2,2.9,4,7.4,7.9,6.4c1.6-0.4,2.2-2.1,1.8-3.6c-0.4-1.5-1.1-3-2.2-4.2
		c-4.4-4.7-8.9-9.3-13.4-13.9C396.9,123.2,396.9,123.2,396.8,123.3"/>
	<path class="st0" d="M424.4,146.6c0,0.1,0,0.2,0,0.3c-0.1,1.9,0.2,3.7,0.3,5.6c0.1,1.7-0.6,3.3-1.9,4.4c-3.7,3.3-3.6,9-1.5,13.1
		c0.6,1.2,2,2.7,3.4,1.6c2.3-1.7,2.8-6.5,2.6-9.2c-0.2-2.7-0.7-5.4-1.1-8.1c-0.2-1.3-0.5-2.7-0.8-4c-0.1-0.7-0.3-1.3-0.4-2
		c-0.1-0.7-0.1-1.4-0.4-2C424.5,146.4,424.4,146.5,424.4,146.6"/>
	<path class="st0" d="M399.9,150.6c2.8,3.7,5.6,7.4,8.5,11.1c1.4,1.8,2.8,3.6,4.2,5.5c1.2,1.5,2.4,3.5,4.1,4.4
		c1.1,0.6,3,0.8,3.3-0.7c0.2-1.2-0.4-2.9-0.7-4c-1.1-3.6-3.5-6.5-7.1-7.6c-4.5-1.4-7.6-4.1-10.2-7.8c-0.4-0.6-0.9-1.1-1.4-1.6
		C400.4,150.1,400.2,150.3,399.9,150.6"/>
	<path class="st0" d="M396,138.3c0.7,0.7,1.1,1.8,1.6,2.6c0.6,0.9,1.2,1.8,1.8,2.7c1.3,1.8,2.6,3.6,4,5.3c2.4,2.8,5.7,7,9.5,7.9
		c0.7,0.2,1.4,0.1,1.8-0.5c0.7-1.1-0.6-3.4-1.1-4.4c-1.4-3-3.8-5.2-7-6c-4-1-7-3.2-9.4-6.4C396.9,139.1,396.4,138.8,396,138.3"/>
	<path class="st0" d="M415.5,133.9c0.2,0.8,0.3,1.6,0.6,2.3c1.5,3.1,1.4,5.7-1.2,8.4c-1.7,1.9-1.3,4.5-0.5,6.7
		c0.6,1.6,1.9,5.8,4.2,5.1c2.1-0.7,2.4-2.7,2.3-4.5C420.7,145.4,418.9,139.4,415.5,133.9"/>
	<path class="st1" d="M285,119.6l-1.1-1.1c-0.3-0.3-0.8-0.5-1.3-0.5c-0.4,0-0.8,0.2-1.1,0.5l-0.3,0.3c-0.2,0.2-0.4,0.6-0.5,0.9
		c-0.1,0.5,0.1,1.1,0.5,1.5c0,0,0,0,0,0l0.7,0.7c0.6-0.4,1.3-0.7,2-1.1C284.2,120.4,284.6,120,285,119.6"/>
	<path class="st1" d="M287.3,115.1c-0.5-0.5-1.2-0.6-1.9-0.4c0,0,0,0,0,0c-0.2,0.1-0.4,0.2-0.6,0.4l-0.3,0.3c-0.7,0.7-0.7,1.8,0,2.4
		l1.2,1.2c0.9-0.8,1.9-1.6,3-2.5L287.3,115.1z"/>
	<path class="st1" d="M302.3,103.2l-1.5-1.5c-0.4-0.4-0.9-0.5-1.4-0.4c0,0,0,0,0,0c-0.2,0.1-0.5,0.2-0.7,0.4l-0.3,0.3
		c-0.6,0.6-0.6,1.5,0,2.1l1.5,1.5c0.6,0.6,1.5,0.6,2.1,0l0.3-0.3C302.9,104.7,302.9,103.7,302.3,103.2"/>
	<path class="st1" d="M299.6,107.2C299.6,107.2,299.6,107.2,299.6,107.2c-0.1-0.3-0.2-0.5-0.4-0.7l-1.7-1.7c-0.3-0.3-0.7-0.5-1-0.5
		c-0.5-0.1-1,0.1-1.4,0.5l-0.3,0.3c-0.2,0.2-0.3,0.3-0.4,0.6c-0.2,0.6-0.1,1.3,0.3,1.8c0,0,0.1,0.1,0.1,0.1l1.7,1.6
		c0,0,0.1,0.1,0.1,0.1c0.1,0.1,0.2,0.2,0.3,0.2c0,0,0,0,0,0c0.2,0.1,0.4,0.2,0.7,0.2c0.7-0.5,1.4-1,2.1-1.5
		C299.7,107.9,299.7,107.5,299.6,107.2"/>
	<path class="st1" d="M288.3,111.6C288.3,111.6,288.3,111.6,288.3,111.6L288,112c-0.4,0.4-0.6,1-0.4,1.6c0.1,0.3,0.2,0.6,0.4,0.8
		l1.5,1.5c1-0.8,2-1.6,3.1-2.4c-0.1-0.1-0.1-0.1-0.2-0.2l-1.7-1.6c-0.2-0.2-0.5-0.4-0.8-0.4c-0.5-0.1-1,0-1.4,0.3
		C288.4,111.5,288.4,111.6,288.3,111.6"/>
	<path class="st1" d="M284.1,109.7l-0.3,0.3c-0.5,0.5-0.5,1.4,0,1.9l1.4,1.4c0.4,0.4,0.9,0.5,1.4,0.3c-0.1-0.8,0.2-1.6,0.8-2.1
		l0.1-0.1c0-0.1-0.1-0.1-0.1-0.2l-1.4-1.4C285.4,109.1,284.6,109.1,284.1,109.7"/>
	<path class="st1" d="M283.1,116.3c0.1-0.6,0.3-1.2,0.8-1.6l0.3-0.3c0.1-0.1,0.3-0.3,0.4-0.4c0-0.1-0.1-0.1-0.2-0.2l-1.4-1.4
		c-0.1-0.1-0.3-0.2-0.5-0.3c-0.5-0.2-1,0-1.4,0.3l-0.3,0.3c-0.4,0.4-0.5,0.9-0.3,1.4c0,0,0,0,0,0c0.1,0.2,0.2,0.4,0.3,0.5l1.4,1.4
		C282.6,116.2,282.8,116.3,283.1,116.3"/>
	<path class="st1" d="M279.9,119c0.1-0.3,0.3-0.6,0.6-0.9l0.3-0.3c0.3-0.3,0.7-0.6,1.2-0.7c-0.1-0.2-0.2-0.4-0.3-0.5l-1.4-1.4
		c-0.1-0.1-0.1-0.1-0.2-0.2c-0.5-0.3-1.2-0.3-1.7,0.2l-0.3,0.3c-0.3,0.3-0.5,0.8-0.3,1.3c0,0,0,0,0,0c0.1,0.2,0.2,0.4,0.3,0.5
		l1.4,1.4C279.6,118.9,279.8,119,279.9,119"/>
	<path class="st1" d="M297.2,103.5c0-0.1,0-0.2,0-0.2c0,0-0.1,0-0.1,0c0,0.1,0,0.1,0,0.2C297.1,103.5,297.1,103.5,297.2,103.5"/>
	<path class="st1" d="M291.4,108.6C291.4,108.6,291.4,108.6,291.4,108.6C291.4,108.6,291.4,108.6,291.4,108.6
		c-0.1,0.1-0.1,0.1-0.2,0.2c0,0,0,0,0,0c-0.3,0.4-0.4,1-0.3,1.5c0.1,0.3,0.2,0.5,0.4,0.8l1.7,1.7c0.1,0.1,0.2,0.2,0.3,0.2
		c0,0,0,0,0.1,0c0.9-0.7,1.9-1.5,2.9-2.2c0-0.2-0.1-0.3-0.2-0.4c0-0.1-0.1-0.2-0.2-0.3c0,0-0.1-0.1-0.1-0.1l-1.7-1.7
		c0,0-0.1-0.1-0.1-0.1c-0.2-0.2-0.4-0.3-0.7-0.3c-0.6-0.1-1.2,0-1.6,0.4L291.4,108.6z"/>
	<path class="st1" d="M287.9,106.5c-0.4,0-0.8,0.1-1,0.4l-0.3,0.3c-0.5,0.5-0.5,1.4,0,1.9l1.4,1.4c0.1,0.1,0.2,0.1,0.2,0.2
		c0.5-0.3,1.1-0.4,1.7-0.3l0,0c-0.1-0.6,0-1.2,0.3-1.8c-0.1-0.1-0.1-0.2-0.2-0.2l-1.3-1.3C288.5,106.8,288.2,106.7,287.9,106.5"/>
	<path class="st1" d="M278.9,119.4l-1.4-1.4c-0.5-0.5-1.4-0.5-1.9,0l-0.3,0.3c-0.3,0.3-0.4,0.7-0.4,1.2c0,0.3,0.2,0.5,0.4,0.7
		l1.4,1.4c0.1,0.1,0.1,0.1,0.2,0.1c0-0.1,0.1-0.1,0.2-0.2l0.3-0.3c0.5-0.5,1.2-0.8,1.9-0.8C279.3,120.1,279.1,119.7,278.9,119.4"/>
	<path class="st1" d="M301.6,98.8c-0.6,0.6-0.6,1.5,0,2.1l1.5,1.5c0.6,0.6,1.5,0.6,2.1,0l0.3-0.3c0.6-0.6,0.6-1.5,0-2.1l-1.5-1.5
		c-0.6-0.6-1.5-0.6-2.1,0L301.6,98.8z"/>
	<path class="st1" d="M301.4,106.9c0.1,0,0.1-0.1,0.2-0.1C301.5,106.8,301.4,106.8,301.4,106.9C301.3,106.9,301.4,106.9,301.4,106.9
		"/>
	<path class="st1" d="M307.8,93.3l-0.2,0.2c-0.2,0.2-0.3,0.5-0.3,0.8c0.2,0.1,0.4,0.2,0.6,0.4l1.4,1.4c0.2,0.2,0.3,0.4,0.4,0.6
		c0.3,0,0.6-0.1,0.8-0.3l0.2-0.2c0.1-0.1,0.2-0.3,0.3-0.4c0,0,0,0,0,0c0,0,0,0,0,0c0.1-0.4,0-0.9-0.3-1.2l-1.2-1.2
		C309,92.9,308.2,92.9,307.8,93.3"/>
	<path class="st1" d="M304.8,95.8c-0.6,0.6-0.6,1.5,0,2l1.4,1.4c0.6,0.6,1.5,0.6,2,0l0.3-0.3c0.6-0.6,0.6-1.5,0-2l-1.4-1.4
		c-0.6-0.6-1.5-0.6-2,0L304.8,95.8z"/>
	<path class="st1" d="M300.2,99.5c0.1-0.5,0.3-1,0.7-1.4l0.3-0.3c0.1-0.1,0.3-0.3,0.4-0.4c-0.1-0.2-0.2-0.4-0.3-0.5l-1.4-1.4
		c-0.5-0.5-1.4-0.5-1.9,0l-0.3,0.3c-0.5,0.5-0.5,1.4,0,1.9l1.4,1.4C299.4,99.4,299.8,99.5,300.2,99.5"/>
	<path class="st1" d="M299.1,94.3c0.1,0,0.2,0,0.2,0c-0.1-0.4,0-0.8,0.2-1.2l-0.1,0.1c-0.1,0.1-0.1,0.1-0.2,0.2
		C299.1,93.7,299,94,299.1,94.3"/>
	<path class="st1" d="M300.9,92.8l-0.3,0.3c-0.5,0.5-0.5,1.4,0,1.9l1.4,1.4c0.4,0.4,0.9,0.5,1.4,0.3c0-0.6,0.3-1.1,0.7-1.5l0.3-0.3
		c0,0,0,0,0.1-0.1c-0.1-0.2-0.2-0.4-0.3-0.6l-1.4-1.4c-0.1-0.1-0.1-0.1-0.2-0.2C302,92.3,301.3,92.4,300.9,92.8"/>
	<path class="st1" d="M297.2,102.3c0.1-0.4,0.3-0.7,0.6-1l0.3-0.3c0.2-0.2,0.5-0.4,0.8-0.5c0-0.3-0.2-0.5-0.4-0.7l-1.4-1.4
		c-0.5-0.5-1.4-0.5-1.9,0l-0.3,0.3c-0.5,0.5-0.5,1.4,0,1.9l1.4,1.4C296.6,102.2,296.9,102.3,297.2,102.3"/>
	<path class="st1" d="M274.3,115c0.3-0.1,0.5-0.1,0.8-0.1c-0.2-0.7,0-1.5,0.6-2.1l0.3-0.3c0.4-0.4,1-0.6,1.6-0.6
		c-0.1-0.6-0.1-1.2,0.3-1.7c0.1-0.1,0.2-0.3,0.3-0.4l0.3-0.3c0.1-0.1,0.2-0.2,0.3-0.2c0.5-0.3,1-0.5,1.5-0.4c-0.1-0.5,0-1,0.3-1.4
		c0.1-0.2,0.2-0.3,0.4-0.5l0.3-0.3c0.2-0.1,0.3-0.3,0.5-0.4c0.5-0.3,1-0.3,1.5-0.2c0-0.6,0.2-1.2,0.6-1.7l0.3-0.3
		c0.5-0.5,1.3-0.7,1.9-0.6c0-0.2,0-0.5,0.1-0.7c0,0,0-0.1,0-0.1l0-9.8C282.5,98.6,278.3,106.5,274.3,115"/>
	<path class="st1" d="M306.6,102.2c-0.1,0.2-0.3,0.4-0.4,0.6l-0.3,0.3c-0.5,0.5-1.1,0.7-1.7,0.7c0.1,0.2,0.2,0.4,0.3,0.6l0.2,0.2
		c0.9-0.6,1.7-1.2,2.5-1.8L306.6,102.2z"/>
	<path class="st1" d="M271.7,128.4c-0.1,0-0.2,0.1-0.2,0.1c-0.1,0.1-0.2,0.1-0.2,0.2l-0.3,0.3c-0.1,0.1-0.1,0.1-0.1,0.2
		c0.4-0.3,0.8-0.6,1.2-0.9C271.9,128.3,271.8,128.3,271.7,128.4"/>
	<path class="st1" d="M293.8,104.9c0.1-0.2,0.2-0.3,0.3-0.4l0.3-0.3c0.4-0.4,1-0.7,1.6-0.8c0-0.3-0.2-0.6-0.4-0.8l-1.4-1.4
		c-0.5-0.5-1.4-0.5-1.9,0l-0.3,0.3c-0.5,0.5-0.5,1.4,0,1.9l1.4,1.4C293.6,104.8,293.7,104.9,293.8,104.9"/>
	<path class="st1" d="M315.1,97.4l-0.2,0.2l-2.8,2.9c0,0,0,0-0.1,0.1c0,0-0.9,0.6-2.4,1.6c-0.1,0.1-0.2,0.1-0.3,0.2
		c-1.9,1.3-4.7,3.3-7.8,5.6c0,0,0,0,0,0c0,0-0.1,0.1-0.2,0.1c-0.4,0.3-0.7,0.5-1.1,0.8c0,0,0,0,0,0c0,0-0.1,0.1-0.1,0.1
		c-4.3,3.2-9,6.7-12.7,9.8c0.7-0.4,1.4-0.8,2.2-1.1c3.5-1.8,7.4-3.7,11.6-5.7c0,0,0,0,0,0c0.2-0.1,0.4-0.2,0.6-0.3c0,0,0,0,0,0
		c1.5-0.7,3.1-1.4,4.6-2.1c0,0,0,0,0,0l0.1,0c0,0,0.1,0,0.1-0.1c0.1-0.1,0.3-0.1,0.4-0.2c5.2-6,8.8-10.9,10.5-14.6l-2.6,2.7
		C315.2,97.3,315.2,97.3,315.1,97.4"/>
	<path class="st1" d="M283.1,109.3l0.3-0.3c0.3-0.3,0.6-0.5,1-0.6l-0.8-0.8l-0.2-0.2c-0.4-0.4-1-0.5-1.5-0.2
		c-0.1,0.1-0.2,0.1-0.3,0.2l-0.3,0.3c-0.1,0.1-0.1,0.2-0.2,0.3c-0.3,0.5-0.2,1.1,0.2,1.5l0,0l1,1
		C282.5,110.1,282.8,109.6,283.1,109.3"/>
	<path class="st1" d="M309.4,99.4c-0.1,0.1-0.1,0.2-0.2,0.2l-0.3,0.3c-0.5,0.5-1.3,0.8-2,0.7l0.7,0.7c0.4,0.4,0.9,0.4,1.4,0.2
		c0.1,0,0.1-0.1,0.2-0.1c0,0,0,0,0.1,0l0.2-0.2c0.4-0.4,0.4-1,0.1-1.5c0,0,0,0-0.1-0.1L309.4,99.4z"/>
	<path class="st1" d="M280.3,112.1l0.3-0.3c0.3-0.3,0.7-0.5,1.2-0.6l-1-1c-0.4-0.4-1.1-0.5-1.6-0.1c-0.1,0-0.1,0.1-0.2,0.1l-0.3,0.3
		c-0.1,0.1-0.1,0.1-0.2,0.2c-0.3,0.5-0.2,1.1,0.2,1.6l0.3,0.3l0.7,0.7C279.8,112.8,280,112.4,280.3,112.1"/>
	<path class="st1" d="M273.4,125.2c0-0.1-0.1-0.1-0.2-0.2l-1.4-1.4c-0.4-0.4-1-0.5-1.5-0.2c-0.3,0.7-0.6,1.4-0.9,2
		c0.1,0.1,0.2,0.3,0.3,0.4l1.4,1.4c0.1,0.1,0.2,0.2,0.4,0.3c0.4-0.2,0.9-0.2,1.4-0.1c0,0,0,0,0.1,0
		C272.8,126.5,273,125.8,273.4,125.2"/>
	<path class="st1" d="M276.3,123.8c0-0.4,0-0.7,0.1-1c-0.1-0.2-0.2-0.4-0.3-0.5l-1.4-1.4c-0.5-0.5-1.4-0.5-1.9,0l-0.3,0.3
		c-0.5,0.5-0.5,1.4,0,1.9l1.4,1.4c0.1,0.1,0.1,0.1,0.2,0.1c0.6-0.5,1.4-0.7,2.1-0.6C276.3,123.8,276.3,123.8,276.3,123.8"/>
	<path class="st1" d="M277.5,114.9l0.3-0.3c0.4-0.4,0.8-0.6,1.3-0.6l-0.7-0.7c-0.5-0.5-1.3-0.5-1.8,0l-0.3,0.3
		c-0.5,0.5-0.5,1.3,0,1.8l0.2,0.2l0.4,0.4C277,115.5,277.2,115.2,277.5,114.9"/>
	<path class="st1" d="M274.2,118.5c0.1-0.3,0.3-0.6,0.5-0.9l0.3-0.3c0.4-0.4,1-0.6,1.5-0.7l-0.6-0.6c-0.5-0.5-1.3-0.5-1.8,0
		l-0.3,0.3c-0.5,0.5-0.5,1.3,0,1.8l0,0L274.2,118.5z"/>
	<path class="st1" d="M267.2,131.5c0.2-0.2,0.5-0.4,0.8-0.5c0,0,0,0,0,0c0,0,0,0,0,0c0,0,0,0,0,0c-0.1-0.1-0.2-0.1-0.2-0.2l-0.2-0.2
		c-0.2,0.5-0.4,0.9-0.5,1.3L267.2,131.5z"/>
	<path class="st1" d="M296.2,97.1c0.1,0,0.2,0,0.4,0c-0.1-0.7,0.1-1.4,0.6-1.9l0.3-0.3c0.1-0.1,0.1-0.1,0.2-0.2c-0.2,0-0.4,0-0.6,0
		c0,0,0,0,0,0c-0.2,0.1-0.4,0.2-0.6,0.3l-0.3,0.3C295.8,95.9,295.7,96.6,296.2,97.1"/>
	<path class="st1" d="M303.4,92.2l1.4,1.4c0.2,0.2,0.4,0.5,0.5,0.7c0.3-0.1,0.7-0.2,1-0.1c0.1-0.4,0.2-0.8,0.5-1.1
		c-0.1-0.1-0.1-0.2-0.2-0.3l-1-1c0,0-0.2-0.2-0.2-0.2c-0.4-0.4-1.1-0.4-1.5,0l-0.2,0.2C303.5,91.8,303.4,92,303.4,92.2
		C303.4,92.1,303.4,92.1,303.4,92.2"/>
	<path class="st1" d="M293.3,99.7l0.3,0.3c0.1,0,0.1,0,0.2,0c-0.1-0.7,0.1-1.4,0.6-1.9l0.3-0.3c0.1-0.1,0.3-0.3,0.5-0.4
		c-0.5-0.3-1.1-0.2-1.6,0.2l-0.3,0.3C292.8,98.4,292.8,99.2,293.3,99.7"/>
	<path class="st1" d="M313.7,89.2l0.9,0.9c0.2,0.2,0.3,0.4,0.4,0.6l0,0c0.2-0.2,0.2-0.6,0-0.8l-0.8-0.8c-0.2-0.2-0.5-0.2-0.7-0.1
		C313.5,89,313.6,89.1,313.7,89.2"/>
	<path class="st1" d="M311.3,89.1L311.3,89.1L311.3,89.1c0.2-0.2,0.5-0.3,0.7-0.4l-0.2-0.2c-0.1-0.1-0.3-0.1-0.5,0l-0.1,0.1
		C311.2,88.8,311.2,89,311.3,89.1"/>
	<path class="st1" d="M309.6,90.3c0.3-0.2,0.7-0.4,1.1-0.4l-0.7-0.7c-0.2-0.2-0.6-0.2-0.8,0l-0.2,0.2c-0.1,0.1-0.1,0.1-0.1,0.2
		L309.6,90.3z"/>
	<path class="st1" d="M306.3,91.1l0.9,0.9c0.1,0.1,0.2,0.2,0.3,0.4c0.4-0.2,0.8-0.3,1.2-0.3c0-0.4,0.1-0.7,0.3-1.1l-0.9-0.9
		c0,0,0,0,0,0c-0.4-0.3-0.9-0.3-1.3,0l-0.2,0.2C306.3,90.5,306.3,90.8,306.3,91.1"/>
	<path class="st1" d="M290.1,101.9l0.8,0.8c-0.1-0.7,0.1-1.4,0.6-1.9l0.3-0.3c0.2-0.2,0.4-0.3,0.6-0.4l-0.2-0.2
		c-0.5-0.5-1.3-0.5-1.8,0l-0.3,0.3C289.6,100.7,289.6,101.5,290.1,101.9"/>
	<path class="st1" d="M253.8,144.7c-1,0.7-1.9,1.3-2.4,1.7l4,4c0.1-0.1,0.2-0.1,0.4-0.2C254.8,148.7,254.2,146.9,253.8,144.7"/>
	<path class="st1" d="M307.8,110C307.8,110,307.8,110,307.8,110C307.7,110,307.7,110,307.8,110c-0.2,0.1-0.4,0.2-0.5,0.2
		c0,0-0.1,0-0.1,0.1l-0.1,0c0,0,0,0,0,0c-1.6,0.7-3.1,1.4-4.6,2.1c0,0,0,0,0,0c-0.2,0.1-0.4,0.2-0.6,0.3c0,0,0,0,0,0
		c-4.2,1.9-8,3.8-11.6,5.6c-1.3,0.7-2.6,1.3-3.8,2c0,0,0,0,0,0l0,0c0,0,0,0,0,0c-0.7,0.4-1.3,0.7-2,1.1c-0.8,0.4-1.6,0.9-2.3,1.3
		c0,0,0,0,0,0c-0.2,0.1-0.4,0.2-0.6,0.3c-1.3,0.8-2.5,1.5-3.7,2.2c0,0,0,0,0,0c-1.4,0.9-2.7,1.8-3.9,2.6c0,0,0,0,0,0
		c-0.1,0.1-0.2,0.1-0.3,0.2c-1.2,0.8-2.2,1.7-3.3,2.6c-0.1,0.1-0.3,0.2-0.4,0.3c-0.1,0.1-0.3,0.2-0.4,0.3c-0.7,0.6-1.3,1.1-1.9,1.6
		c-0.3,0.2-0.5,0.5-0.8,0.7l0,0c-0.1,0.1-0.2,0.1-0.2,0.2c-0.4,0.3-0.7,0.6-1,0.9c-0.7,0.5-1.3,1-1.9,1.4c0,0,0,0,0,0
		c-0.1,0.1-0.3,0.2-0.4,0.3c-0.1,0.1-0.2,0.2-0.4,0.3c-0.3,0.2-0.5,0.5-0.7,0.8c-0.5,0.8-0.8,1.9-0.8,2.9c0,0,0,0,0,0
		c0,0.7,0.1,2.4,1.1,3.7c0.1,0.1,0.3,0.3,0.4,0.4c0.1-0.1,0.3-0.2,0.4-0.4c0.4-0.4,0.8-0.9,1.4-1c0,0,0,0,0,0
		c0.6-0.2,1.2-0.2,1.8-0.3c2.2,0,3.9,0.8,4.5,1.1c0.1,0,0.1,0.1,0.1,0.1c0.2,0.1,0.9,0.2,3.1-1c1.9-1.1,4.5-2.9,7.8-5.5
		c7.6-6,19-16.1,33.9-30.1l1.3-1.8C315.2,106.8,311.9,108.2,307.8,110"/>
	<path class="st1" d="M287.1,104.4l0.9,0.9c0-0.6,0.2-1.2,0.7-1.7l0.3-0.3c0.2-0.2,0.5-0.4,0.7-0.5l-0.3-0.3l-0.3-0.3
		c-0.5-0.5-1.3-0.5-1.8,0l-0.3,0.3C286.6,103.1,286.6,103.9,287.1,104.4"/>
	<path class="st1" d="M259.3,138c-0.2,0.6-0.6,1.4-1,2.2c0.6,0.7,1.4,1.6,2.2,2.4c-0.1-0.7-0.2-1.3-0.2-1.7
		C259.9,140.1,259.6,139.1,259.3,138"/>
	<path class="st1" d="M260.6,139c0.2-0.6,0.4-1.2,0.7-1.7c0.2-0.4,0.6-0.8,0.9-1.1c0.2-0.2,0.4-0.3,0.5-0.4c0.1-0.1,0.3-0.2,0.4-0.3
		c0,0,0,0,0,0c0.6-0.4,1.2-0.8,1.8-1.4c0.1-0.3,0.2-0.6,0.3-0.9c0.4-1.1,0.9-2.5,1.5-3.9c0,0,0,0,0,0c0,0,0,0,0-0.1c0,0,0,0,0,0
		c0,0,0,0,0,0c0.5-1.2,1-2.5,1.6-3.8l0.1-0.3c0,0,0,0,0,0c0.3-0.7,0.6-1.4,1-2.3c0,0,0,0,0,0c0.3-0.7,0.6-1.3,0.8-1.8
		c0.5-1,1-2.1,1.5-3.2c3.7-8,7.6-15.6,11-21.6c-0.3,0.3-0.6,0.6-0.9,0.9c-9.7,9.8-21.2,23.8-21.9,31.1c-0.3,3.1-0.3,5.7-0.1,7.9
		C260.1,137.2,260.3,138.2,260.6,139"/>
	<path class="st1" d="M257.8,141c-0.3,0.4-0.6,0.8-1,1.2c-0.7,0.7-1.4,1.3-2.2,1.9c0.4,2.2,1,4.1,1.9,5.5c1.4-1,3.6-2.5,5.6-4.1
		c0,0-0.1-0.1-0.1-0.1c-0.1-0.1-0.2-0.2-0.3-0.3c-0.3-0.3-0.6-0.6-0.9-0.9C259.7,143.1,258.6,141.9,257.8,141"/>
	<path class="st1" d="M303.6,104.9c-0.1,0.3-0.2,0.5-0.4,0.7c0.2-0.2,0.4-0.3,0.7-0.5l-0.1-0.1C303.7,105,303.7,104.9,303.6,104.9"
		/>
	<path class="st1" d="M311.3,93.9c0.1,0.1,0.1,0.1,0.2,0.2c0.3,0,0.6-0.1,0.8-0.3l0.2-0.2c0.1-0.1,0.1-0.1,0.1-0.2c0,0,0,0,0,0
		c0.2-0.4,0.2-0.9-0.2-1.2l-1.1-1.1c-0.4-0.4-1-0.4-1.4,0l-0.2,0.2c-0.2,0.2-0.3,0.6-0.3,0.9c0.2,0.1,0.3,0.2,0.5,0.4L311.3,93.9z"
		/>
	<path class="st1" d="M289.4,106.2l1.4,1.4c0.1,0.1,0.1,0.1,0.2,0.1l0.1-0.1c0.6-0.6,1.4-0.8,2.2-0.8c0.2-0.5,0.1-1-0.3-1.4
		l-1.4-1.4c-0.5-0.5-1.4-0.5-1.9,0l-0.3,0.3C288.9,104.8,288.9,105.7,289.4,106.2"/>
	<path class="st1" d="M287.1,105.6l-0.6-0.6l-0.1-0.1c-0.5-0.5-1.3-0.5-1.8,0l-0.3,0.3c-0.5,0.5-0.5,1.3,0,1.8l1,1
		c0-0.5,0.2-1.1,0.7-1.5l0.3-0.3C286.5,105.9,286.8,105.8,287.1,105.6"/>
	<path class="st1" d="M271.4,121.2c0.1-0.3,0.3-0.5,0.5-0.7l0.3-0.3c0.5-0.5,1.1-0.7,1.7-0.7l-0.7-0.7c0,0,0,0,0,0
		c-0.2-0.2-0.4-0.3-0.6-0.3C272.2,119.5,271.8,120.3,271.4,121.2L271.4,121.2z"/>
	<path class="st1" d="M310.7,100.1c0,0.1,0,0.1,0,0.2c0.1-0.1,0.1-0.1,0.2-0.1C310.9,100.1,310.8,100.1,310.7,100.1"/>
	<path class="st1" d="M315.2,91.7L315.2,91.7C315.2,91.8,315.2,91.8,315.2,91.7l0.2-0.1c0,0,0.1-0.1,0.1-0.2
		C315.4,91.6,315.3,91.6,315.2,91.7"/>
	<path class="st1" d="M311.3,96.9l-0.2,0.2c-0.3,0.3-0.8,0.5-1.2,0.6c0,0.2,0,0.5-0.1,0.7l0.3,0.3c0.1,0.1,0.1,0.1,0.1,0.2
		c0.4,0.3,1,0.3,1.4-0.1l0.2-0.2c0.4-0.4,0.4-1,0.1-1.4l-0.5-0.5C311.4,96.8,311.4,96.9,311.3,96.9"/>
	<path class="st1" d="M313,89.8c-0.3-0.3-0.7-0.3-1,0l-0.2,0.2c0,0-0.1,0.1-0.1,0.2c0,0,0,0,0,0c0.2,0.1,0.3,0.2,0.4,0.3l1.1,1.1
		c0.1,0.1,0.2,0.3,0.3,0.4c0.1,0,0.1-0.1,0.2-0.1l0.2-0.2c0.3-0.3,0.3-0.7,0-1L313,89.8z"/>
	<path class="st1" d="M281,122.4l-0.5-0.5c0,0,0,0,0,0c-0.2-0.2-0.6-0.4-0.9-0.5c-0.5-0.1-1.1,0.1-1.5,0.5l-0.3,0.3
		c-0.1,0.1-0.2,0.2-0.3,0.3c0,0,0,0,0,0c-0.2,0.4-0.3,0.8-0.2,1.2c0,0,0,0,0,0c0,0.2,0.1,0.5,0.3,0.7
		C278.6,123.8,279.7,123.1,281,122.4C280.9,122.4,280.9,122.4,281,122.4"/>
	<path class="st1" d="M314.4,95.3c0,0-0.9-0.9-0.9-0.9c-0.1-0.1-0.1-0.1-0.2-0.1c0,0,0,0,0,0.1l-0.2,0.2c-0.3,0.3-0.7,0.5-1.1,0.5
		c0,0.3,0,0.5,0,0.8l0.7,0.7c0,0,0.1,0.1,0.1,0.2l0.3,0.3c0.4,0.4,0.9,0.4,1.3,0l0.1-0.1l0.2-0.2c0.3-0.4,0.3-0.9-0.1-1.2
		L314.4,95.3z"/>
	<path class="st1" d="M314.4,92.6c-0.2,0.2-0.4,0.3-0.6,0.4c0,0.2,0,0.3-0.1,0.5c0.1,0.1,0.3,0.2,0.4,0.3l0.7,0.7
		c0.1,0,0.2-0.1,0.2-0.2l0.2-0.2c0.3-0.3,0.3-0.7,0-1l-0.7-0.7L314.4,92.6z"/>
	<path class="st1" d="M268.5,130.1C268.5,130.1,268.5,130.1,268.5,130.1C268.5,130.1,268.5,130.1,268.5,130.1
		C268.5,130.1,268.5,130.1,268.5,130.1C268.5,130.1,268.5,130.1,268.5,130.1C268.5,130.1,268.5,130.1,268.5,130.1
		c0.1,0.1,0.1,0.1,0.1,0.1c0.2,0.1,0.5,0.2,0.7,0.2c0,0,0.1-0.1,0.1-0.1c0-0.7,0.3-1.4,0.8-1.9l0.3-0.3c0,0,0,0,0,0
		c0-0.1-0.1-0.1-0.1-0.2l-1.4-1.4c0,0,0,0,0,0c-0.4,1-0.9,2-1.2,2.9L268.5,130.1z"/>
	<path class="st1" d="M276.3,124.9c-0.6-0.2-1.2,0-1.7,0.4l-0.1,0.1c0,0,0,0,0,0l-0.2,0.2c0,0,0,0,0,0c-0.3,0.3-0.5,0.8-0.5,1.3
		c0.9-0.6,1.8-1.3,2.8-1.9C276.6,124.9,276.4,124.9,276.3,124.9C276.3,124.9,276.3,124.9,276.3,124.9"/>
	<path class="st1" d="M271.3,122.4l-0.3-0.3c0,0.1-0.1,0.2-0.1,0.3C271,122.4,271.1,122.4,271.3,122.4"/>
	<path class="st0" d="M324.9,200.4c0,0,11.8,18.8,19.8,8.1C343.6,208.5,335.1,211.6,324.9,200.4"/>
	<path class="st0" d="M349.9,205.2c0,0,4.1-4,6.2-10.5c0.8-1.6,5.8-6.2,11.4-2.5c-2.8,0.7-5.8,1.6-7.6,4.8
		C358.1,200.1,355.9,203.9,349.9,205.2"/>
	<path class="st0" d="M353.3,208.3l3.7,2.5c0,0,15.2-2.8,18.1-10.9C373.9,201.4,369.6,206.7,353.3,208.3"/>
	<path class="st0" d="M376.2,189.7c0,0,14-10.1,14.5-14c1.2,1.3,5.6,13-5,20.6c0.1-0.6,3.6-8.1,3.7-12.1
		C388.4,185.1,377.9,190,376.2,189.7"/>
	<path class="st0" d="M379.2,191.9c0,0,3.2,1.7,3.2,2.3c1.1-2.2,4.4-5.9,4.7-7.2C386.2,187.9,380,191.6,379.2,191.9"/>
	<path class="st0" d="M351.3,209.5c0,0,7.3,2.7,9.4,11.8c-0.7,0.1-8.8,2.4-13-11.1c-0.1,1.4-2.5,18.8,18.5,14.9
		C366.2,223.6,362.9,213,351.3,209.5"/>
	<path class="st0" d="M340.2,183.8c0,0,8.7-8.1,22.4-7.2c-0.4,0.7,4.1,7.3,10.9,10.4c-2.2-0.7-11.2-4.4-12.7-8.3
		C359.4,178.6,354.5,176.4,340.2,183.8"/>
	<path class="st0" d="M341.6,192.9c0,0.7-1.1,1.3-2.6,1.3c-1.4,0-2.6-0.6-2.6-1.3c0-0.7,1.1-1.3,2.6-1.3
		C340.5,191.6,341.6,192.1,341.6,192.9"/>
	<path class="st0" d="M378.8,199.4c0,0-0.4,1.7-1.5,2.3c0.9,0.4,8.7,2.1,11,7.2C387.8,207.7,385.9,203.4,378.8,199.4"/>
	<path class="st0" d="M388.6,200.5c-7.4-9.2-23.3-14.3-24.1-14.9c-1.6-2.6-2.8-3.6-4.6-4.2c1.4,0.7,1.9,3.6,1.9,3.6l-2.5-0.9
		c0,0-1.5-2.8-2.1-4.2c-1,2.6-2.2,3.5-2.2,3.5s-1.4,0-2.8-0.1c-0.7-0.5,0.8-1.7,1.5-2.6c-3.3-0.1-5.3,2.8-5.3,2.8l-1.6,0.3
		c-1.9-0.2,0.3-1.6,1.1-2.5c-3.3,0.4-4.2,2.1-4.9,3c-12.7,1.6-17.9,13.9-17.9,13.9s-0.1,0.6-0.8,1.5c3.7,2,9.3-0.4,10.5-0.9
		c0.2,0.4,0.6,0.8,1.4,1c-0.3-0.3-1.5-0.9-0.9-2.8c0,0-0.8,0.9-0.5,1.8c-7,1.9-8.7,1.2-9.7,0.7c3.2-7.9,17-12.1,18-12.1
		c10.1,8.8,3.5,17.2,2.1,19.8c4.8-1.6,7.7-15.8,7.7-16.8c3.5-1.9,15.6,0.7,16.9,1.3c18.3,6.3,20.8,19.4,21.9,21.8
		c-4.9-3.9-12.6-8.6-15.8-9.3c0.8,3.3,18.1,13.7,19.3,14.8C395.8,212,391.2,203.6,388.6,200.5"/>
	<rect x="62.9" y="388" class="st0" width="373.9" height="1.2"/>
	<path class="st0" d="M114.6,127.1c0,6.4-7.5,9.9-21,9.9c-18.7,0-32.2-8.3-32.2-8.3l-7,16.1c0,0,13.5,10.9,39.2,10.9
		c29.4,0,45.9-9.9,45.9-27.5c0-37.1-60.7-22.3-60.7-40.5c0-6.4,6.4-9.9,17.9-9.9c17.1,0,29.1,7.5,29.1,7.5l7-16.1
		c0,0-11.9-10.1-36.1-10.1c-27.5,0-42.8,9.9-42.8,27.5C53.9,123.7,114.6,109,114.6,127.1"/>
	<path class="st0" d="M165.1,154.1l6.1-14H212l6.2,14h25.5l-41.2-93.4h-21.8l-41.2,93.4H165.1z M191.7,93.8l12.8,29.2h-25.7
		L191.7,93.8z"/>
	<polygon class="st0" points="124,232.6 82,172 57.1,172 57.1,265.4 82,265.4 82,204.8 124,265.4 148.9,265.4 148.9,172 124,172 	
		"/>
	<path class="st0" d="M179.2,263.5L179.2,263.5l13.6-30.8c0,0,0.1-0.1,0.1-0.1l12.1-27.5l5,11.3c5.8-3.7,12.8-6.9,21.4-9.3
		L215.8,172H194l-41.2,93.4h25.5L179.2,263.5z"/>
	<path class="st0" d="M118.5,340.1v10.1c0,0-6.2,5.4-16.3,5.4c-14.1,0-25.7-11.5-25.7-25.7c0-14.1,11.5-25.7,25.7-25.7
		c13.2,0,21.5,10.1,21.5,10.1l15.6-14.8c0,0-12.2-17.9-37.1-17.9c-26.6,0-48.2,21.7-48.2,48.2c0,26.6,21.7,48.2,48.2,48.2
		c28.5,0,41.2-21.8,41.2-21.8v-28.8H131C122.7,327.7,118.5,331.8,118.5,340.1"/>
	<path class="st0" d="M245.4,314.9c0-20.2-13-31.5-36.2-31.5h-55.6v93.4h24.9v-30.3h17.8l20.9,30.3h28.3l-22-32
		C237.6,340.8,245.4,330.5,245.4,314.9 M206.1,327.7h-27.6V302h27.6c9.7,0,15.2,4.5,15.2,12.8C221.2,323.2,215.8,327.7,206.1,327.7"
		/>
	<rect x="257.8" y="283.3" class="st0" width="24.9" height="93.4"/>
</g>
</svg>
